<svg xmlns="http://www.w3.org/2000/svg" viewBox="0 0 119 119"><defs><style>.cls-1{fill:#e4b5a5;}.cls-2{fill:#272727;}</style></defs><title>favicon</title><g id="Camada_2" data-name="Camada 2"><g id="HEADER"><circle class="cls-1" cx="59.5" cy="59.5" r="59.5"/><path class="cls-2" d="M81.87,102a47.88,47.88,0,0,1-24.1-7.72c-14.55-9.55-19-24.14-20-28.08A39.87,39.87,0,0,1,52.4,62.06c14.23-1.17,24.69,5.91,28,8.2a46.53,46.53,0,0,1,11.7,11.81c-1.15.53-2.9,1.28-5.07,2.05C81.7,86,74.58,88.52,66.38,87.37a31.44,31.44,0,0,1-12.89-4.94,52.39,52.39,0,0,0,9.76,1.21,53.49,53.49,0,0,0,20.13-3.38A35.07,35.07,0,0,0,43.6,68.81a47,47,0,0,0,2.78,6.27C55.46,92.1,73,99.21,81.87,102Z"/><path class="cls-2" d="M51.56,92a39.41,39.41,0,0,1-19.41-16c-9-15-3.82-30.79-2.65-34.35A46.92,46.92,0,0,1,49,17a35.12,35.12,0,0,1,7.23,10.73c6,14,.57,27.47-.84,30.74a48,48,0,0,0-.37-17.24,47.66,47.66,0,0,0-7.11-17A40.93,40.93,0,0,0,34.2,42.9c-6.13,17.42,2.56,32.62,4.1,35.19A43.62,43.62,0,0,0,51.56,92Z"/></g></g></svg>