<svg xmlns="http://www.w3.org/2000/svg" viewBox="0 0 1082 1082"><defs><style>.cls-1{fill:#272727;}.cls-2{fill:#fff;}</style></defs><title>add</title><g id="Camada_2" data-name="Camada 2"><g id="Camada_1-2" data-name="Camada 1"><path class="cls-1" d="M541,1077.5A536.64,536.64,0,0,1,332.17,46.66a536.64,536.64,0,0,1,417.66,988.68A533,533,0,0,1,541,1077.5Z"/><path class="cls-2" d="M541,9A532.15,532.15,0,0,1,748.08,1031.2,532.15,532.15,0,0,1,333.92,50.8,528.7,528.7,0,0,1,541,9m0-9h0C242.21,0,0,242.21,0,541H0c0,298.79,242.21,541,541,541h0c298.79,0,541-242.21,541-541h0C1082,242.21,839.79,0,541,0Z"/><path class="cls-2" d="M840.32,482H638.69a38.64,38.64,0,0,1-38.64-38.64V241.68a59,59,0,0,0-59-59.05h0A59,59,0,0,0,482,241.68V443.31A38.64,38.64,0,0,1,443.31,482H241.68A59,59,0,0,0,182.63,541h0a59,59,0,0,0,59.05,59H443.31A38.64,38.64,0,0,1,482,638.69V840.32A59.06,59.06,0,0,0,541,899.38h0a59.06,59.06,0,0,0,59-59.06V638.69a38.64,38.64,0,0,1,38.64-38.64H840.32a59.06,59.06,0,0,0,59.06-59h0A59.06,59.06,0,0,0,840.32,482Z"/></g></g></svg>