<svg xmlns="http://www.w3.org/2000/svg" viewBox="0 0 1082 1082"><defs><style>.cls-1{fill:#272727;}.cls-2{fill:none;}.cls-2,.cls-3{stroke:#fff;stroke-miterlimit:10;stroke-width:42px;}.cls-3{fill:#fff;}</style></defs><title>carrinho</title><g id="Camada_2" data-name="Camada 2"><g id="Camada_1-2" data-name="Camada 1"><rect class="cls-1" width="1082" height="1082" rx="541" ry="541"/><path class="cls-2" d="M346.46,715.41a50.8,50.8,0,1,0,50.8,50.79A50.85,50.85,0,0,0,346.46,715.41Z"/><path class="cls-2" d="M679.09,715.41a50.8,50.8,0,1,0,50.8,50.79A50.85,50.85,0,0,0,679.09,715.41Z"/><path class="cls-3" d="M838.23,263l-72.55,2.62-25.54,84.7H240.93L367.58,655.4l305.5,4.1,78-265.21.1,0,32-106,55.91-2ZM655.62,636.17l-272.38-3.66L275.89,373.92H732.75Z"/></g></g></svg>