<svg xmlns="http://www.w3.org/2000/svg" viewBox="0 0 136.33 136.33"><defs><style>.cls-1{fill:none;stroke:#fff;stroke-miterlimit:10;stroke-width:9px;}.cls-2{fill:#fff;}</style></defs><title>inta</title><g id="Camada_2" data-name="Camada 2"><g id="Camada_1-2" data-name="Camada 1"><circle class="cls-1" cx="68.17" cy="68.17" r="63.67"/><path class="cls-2" d="M88,28.83H48.33a19.53,19.53,0,0,0-19.5,19.5V88a19.53,19.53,0,0,0,19.5,19.5H88A19.53,19.53,0,0,0,107.5,88V48.33A19.53,19.53,0,0,0,88,28.83ZM68.17,54.27a13.9,13.9,0,1,1-13.9,13.9A13.91,13.91,0,0,1,68.17,54.27Zm16.55-8.5a4.6,4.6,0,1,1,4.59,4.6A4.59,4.59,0,0,1,84.72,45.77ZM88,101.5H48.33A13.52,13.52,0,0,1,34.83,88V68.17H48.27a19.9,19.9,0,0,0,39.79,0H101.5V88A13.52,13.52,0,0,1,88,101.5Z"/></g></g></svg>