<svg xmlns="http://www.w3.org/2000/svg" viewBox="0 0 73.13 95.5"><defs><style>.cls-1{fill:#fffefa;}</style></defs><title>logo</title><g id="Camada_2" data-name="Camada 2"><g id="HEADER"><path class="cls-1" d="M61.69,95.5a53.8,53.8,0,0,1-27.07-8.66C18.28,76.1,13.33,59.72,12.15,55.3a44.54,44.54,0,0,1,16.44-4.67c16-1.32,27.73,6.63,31.41,9.2A52.33,52.33,0,0,1,73.13,73.1c-1.29.59-3.25,1.44-5.69,2.3-5.94,2.1-13.94,4.94-23.15,3.65A35.36,35.36,0,0,1,29.81,73.5a59,59,0,0,0,11,1.36,60.1,60.1,0,0,0,22.6-3.79A40,40,0,0,0,41.86,57a39.78,39.78,0,0,0-23.15,1.22,52.55,52.55,0,0,0,3.11,7C32,84.36,51.72,92.35,61.69,95.5Z"/><path class="cls-1" d="M27.64,84.2a44.37,44.37,0,0,1-21.79-18c-10.14-16.84-4.3-34.58-3-38.58C8.33,11.06,20.79,2.52,24.8,0a39.08,39.08,0,0,1,8.12,12.05c6.73,15.72.65,30.85-.94,34.52a54.07,54.07,0,0,0-.41-19.36,53.7,53.7,0,0,0-8-19.09,46.13,46.13,0,0,0-15.43,21C1.26,48.67,11,65.74,12.75,68.63A49.21,49.21,0,0,0,27.64,84.2Z"/></g></g></svg>