<svg xmlns="http://www.w3.org/2000/svg" viewBox="0 0 174.3 64.59"><defs><style>.cls-1{fill:#f9e5e1;}.cls-2{fill:#e4b5a5;}</style></defs><title>categoria</title><g id="Camada_2" data-name="Camada 2"><g id="Camada_1-2" data-name="Camada 1"><path class="cls-1" d="M21.31,1.48c-.29.55-1.3.59-1.82.69-.74.15-1,.22-1.77.35a6.32,6.32,0,0,1-3.87-.22c-.15,0-.17,0-.27.12a38.27,38.27,0,0,0-3,6.18l-.49,1.13a23.07,23.07,0,0,0,5.69-.09s0,.19,0,.19c.15,0,.32-.17.4.15.14-.05.19.07.27.15s0,.07-.05.15l.12-.08c0,.17-.12.25-.12.42a.86.86,0,0,1,.19-.22.17.17,0,0,1,0,.2,2.38,2.38,0,0,1-1.65.83c-.61.08-1.25.1-1.89.13a21.05,21.05,0,0,1-3.55,0L6.09,19.49a17.65,17.65,0,0,1,1.8-.15,17.11,17.11,0,0,0,2-.4l0,0c.94-.2,1,.1,1.93,0s1.94-.49,2.73.23a1,1,0,0,1-.15,1.69c-1.2.57-1.8-.14-3.05-.22a10.76,10.76,0,0,0-3.13.67,6.27,6.27,0,0,1-3.13-.1,7.25,7.25,0,0,1-1.7-.67,4.57,4.57,0,0,0-1.55-.51.77.77,0,0,0-.64.19c-.17.18-.29.47-.59.47S.08,20.4,0,20.15c-.15-1,1.48-1.92,2.27-1.5a2.24,2.24,0,0,0,.49.25c.12-.28.22-.55.34-.82l3.06-7.16c-1.19-.18-.84.39-1.83.44-.81.05-.27-1,0-1.36.61-.76,1.26-.81,2.44-.71l0-.07C7.87,6.88,9,4,10.13,1.78V1.73A1.13,1.13,0,0,0,9.57,2,5.39,5.39,0,0,0,8.09,3.26a2.35,2.35,0,0,0-.42.56c0,.05-.08.08-.1.1a.53.53,0,0,0-.25-.07.39.39,0,0,1-.24-.37,1.21,1.21,0,0,1,.1-.54C8.31.67,10.75-.78,13.21.45a6.35,6.35,0,0,0,4.56.66c.71-.09.88-.12,1.6-.17a8.43,8.43,0,0,1,1-.1c.24,0,1.13.3.78.69A.88.88,0,0,0,21.31,1.48ZM.92,19.29a1,1,0,0,0-.42.39A2.59,2.59,0,0,0,.92,19.29ZM3.63,19l1.55-3.89.08-.2s0,0,0,0L3.46,19.19s.07,0,.1,0Zm0-.59,0,0,.12-.27,0,0A1.89,1.89,0,0,0,3.61,18.45Zm1-8.32a4,4,0,0,1-.3.29s0,0,.05,0,.17-.17.25-.3ZM6,15.72h0L4.39,19.36A26.68,26.68,0,0,0,6,15.72Zm-.3,3.13.3-.72,1.13-2.9c.1-.25.2-.5.27-.72a0,0,0,0,0,0,0c-.67,1.62-1.33,3.22-2,4.87A1.27,1.27,0,0,0,5.67,18.85Zm1.8-3.55a1.83,1.83,0,0,0-.15.25c-.51,1.28-1.06,2.53-1.6,3.84a.16.16,0,0,0,0,.1c.45-.1.13-.64.4-.79L6.39,18c.29-.76.61-1.55.93-2.34ZM7.59,15a0,0,0,0,0,0,0l0,.3ZM8.75,1.39s0,0,0,0a1.55,1.55,0,0,0-.54.54Zm4.61.76a.44.44,0,0,0-.1.15C13.38,2.25,13.38,2.25,13.36,2.15Zm1.2,18.08s.1-.05,0-.08S14.56,20.2,14.56,20.23Z"/><path class="cls-1" d="M17.76,21.06c-.1,0-.17-.07-.27-.1a.12.12,0,0,0-.12,0,.31.31,0,0,1-.3-.05,1.59,1.59,0,0,1-.46-.32.79.79,0,0,1-.25-.19,3.29,3.29,0,0,1-1-1,6.36,6.36,0,0,1-.39-.72,3.83,3.83,0,0,1,1.53-4.31,4.87,4.87,0,0,1,4.09-.49c-.15-1.13-.84-1.16-1.51-1.92A2.19,2.19,0,0,1,19,9.29c1.06-1.4,4-1.21,5.17,0,.45.42,1.09,2.12.2,2.44-.69.25-.86-.57-1.26-.94a1.76,1.76,0,0,0-.86-.46c-.84-.2-2,.27-1.11,1.13.37.37.81.64,1.18,1a4.28,4.28,0,0,1,.87,1.24.19.19,0,0,0,.19.12,11.54,11.54,0,0,0,2.74-.52,3.74,3.74,0,0,0,1.28-.81c.12-.15.12-.15.32-.15a1.85,1.85,0,0,0-.17.35l0,0a.76.76,0,0,1,.2-.2.19.19,0,0,1,.12,0s0,.1.05.15l.1,0a1.67,1.67,0,0,1,.15.24.65.65,0,0,1-.05.15h.05s0,0,0,.05A3.36,3.36,0,0,1,27.05,14a6.22,6.22,0,0,1-1.95.69c-.39.1-.79.15-1.18.22-.05,0-.1,0-.12,0s-.15.05-.15.2a5.87,5.87,0,0,1,.07.62,4,4,0,0,1-.19,1.62,5.73,5.73,0,0,1-.74,1.51A6,6,0,0,1,21,20.64a3.77,3.77,0,0,1-1.94.64A2.63,2.63,0,0,1,17.76,21.06Zm-1.57-5,0,0c-.34.25-.42.32-.47.55C15.87,16.38,16,16.21,16.19,16.06Zm1.33,1.06,0,0-.12.15a0,0,0,0,0,0,0Zm1.94.52a3.49,3.49,0,0,0,1-2.27s-.1,0-.12,0a4.78,4.78,0,0,0-2.44,1.56c-.39.39-.69.93-.39,1.3S18.8,18.21,19.46,17.64Zm1.06-.44c-.27.34-.57.66-.84,1A1.46,1.46,0,0,0,20.52,17.2Zm.76.81s0,0,0-.05a3.31,3.31,0,0,0-.25.3l0,0Zm0-7.12h0s0,0,0,.08h0Zm.87,7.49c-.2.22-.4.44-.59.69A1.56,1.56,0,0,0,22.15,18.38Zm.29.37s0,0-.05-.05c-.27.37-.56.74-.83,1.08A2.77,2.77,0,0,0,22.44,18.75Z"/><path class="cls-1" d="M37.88,13.87l-.29.4c-.47.61-.74,1-1.26,1.67a25.16,25.16,0,0,1-2.59,2.78A7,7,0,0,1,29.56,21c-1.82.22-4-.59-4.39-2.64a7.39,7.39,0,0,1,1.24-5.1A11.13,11.13,0,0,1,30,9.41,4.33,4.33,0,0,1,33,8.92a4.62,4.62,0,0,1,2.07,1c.52.54.74,1.92-.12,2.32a.38.38,0,0,1-.3-.08c-.34-.27-.1-.69-.15-1-.12-.54-1.08-.07-1.33,0a5.47,5.47,0,0,0-2.39,1.7,11.6,11.6,0,0,0-1,1.33,13.72,13.72,0,0,0-1.28,2.61,3.56,3.56,0,0,0-.37,2.34,1,1,0,0,0,.79.66c1.09.22,2.24-.66,3.06-1.26a30.66,30.66,0,0,0,3.32-3,10.61,10.61,0,0,0,1.75-2c0-.1.1-.12.17-.17s.47,0,.59.07A.21.21,0,0,1,37.88,13.87Zm-9.43-2a0,0,0,0,0,0,0s0,0,0,0h-.05Zm.2-.17c.39-.33.73-.62,1.13-.92l.34-.32s0-.05.05-.1A3.75,3.75,0,0,0,28.65,11.66Zm.73.64a.11.11,0,0,0-.07,0,.08.08,0,0,0,0,0l0,0,.07-.07Zm.28-.37-.08,0s0,.08-.07.15S29.71,12,29.66,11.93Zm.09,0,0,0-.05,0Zm.5.74A.53.53,0,0,0,30,13c-.17.15-.17.15-.22.3.17-.13.17-.13.22-.3a.36.36,0,0,0,.27-.3c.13,0,.15-.07.13-.17S30.22,12.54,30.25,12.64Zm.56-.05-.49.47c-.05,0-.1.1-.05.15-.12,0-.12.07-.12.17a2,2,0,0,0,.12-.17,5.33,5.33,0,0,0,.54-.52s0-.07,0-.1.1,0,.13-.1A.76.76,0,0,1,30.81,12.59Zm.18-.12c.05,0,.09,0,.07-.08Z"/><path class="cls-1" d="M35.22,15.18A10,10,0,0,1,40.66,9c2.12-.77,4.73.09,5.27,2.46.37,1.62-.29,3.35-.86,4.85a.56.56,0,0,0,0,.1,0,0,0,0,1,0,0l.72-.66a27.55,27.55,0,0,0,2.38-2.59l1-1.18s.34-.37.37-.34c.93-.2-.2,1.18-.35,1.4-.69.94-1.7,2.14-1.7,2.14a22,22,0,0,1-1.67,1.6c-.52.4-1,.94-1.72,1.46-1.29,1.45-3,2.7-4.91,2.63A4.29,4.29,0,0,1,35.22,15.18Zm5.1-4.93a7.46,7.46,0,0,0-1.43.89,4,4,0,0,0-1.16,1.3A15.67,15.67,0,0,1,40.32,10.25Zm3.72,5a7.25,7.25,0,0,0,.69-2.44c0-1.21-1-1.53-2-1.26A6.63,6.63,0,0,0,39.7,14a7.43,7.43,0,0,0-1.89,3.82,1.41,1.41,0,0,0,1,1.43,3,3,0,0,0,1.2.12C42,19.09,43.27,17,44,15.23ZM39.38,12a2.18,2.18,0,0,0-.86.94Zm.72.47A3.77,3.77,0,0,0,39,13.7s0,0,0,0C39.36,13.3,39.73,12.89,40.1,12.49ZM41,12.3a4.82,4.82,0,0,0-1.65,1.52A14.09,14.09,0,0,1,41,12.3Zm1.87,5.93,0,0-.07.07s0,0,0,0Zm.2-.22.05-.08h0s0,.05-.05.08Z"/><path class="cls-1" d="M46.55,16.8a41.4,41.4,0,0,1,1.84-4.92c.4-.94.82-1.83,1.24-2.74S50.49,7.25,51,6.31a24.94,24.94,0,0,1,1.93-3.2c.51-.76,1.1-1.8,2.06-2.07a2.73,2.73,0,0,1,2.59,1.35c.84,1.21-.44,3.75-1,4.86A20.8,20.8,0,0,1,52,13.18l-.57.47a.83.83,0,0,0-.27.37c-.34.89-.71,1.8-1,2.71a10.48,10.48,0,0,0-.57,1.94l-.07.47a3.14,3.14,0,0,0,.59-.1,11.64,11.64,0,0,0,5.54-3.59A8.84,8.84,0,0,1,57.24,14c0,.08,0,.13,0,.18.69-.37.12.69,0,.91a25.41,25.41,0,0,1-1.75,2.09,17.1,17.1,0,0,1-2.27,2.12c-1.5,1-3.35,1.92-5.2,1.3S46.08,18.38,46.55,16.8Zm5.73-5.14c.3-.35.6-.69.89-1.06A16.4,16.4,0,0,0,55,7.89,11.93,11.93,0,0,0,56.2,4.41a.75.75,0,0,1,0-.24.44.44,0,0,1-.13.12,34.6,34.6,0,0,0-3.67,6.8c-.12.22-.22.47-.32.69A.46.46,0,0,0,52.28,11.66Zm1-7.81a.06.06,0,0,0,0-.05c.29-.35.56-.72.89-1.06a3.81,3.81,0,0,1,.46-.44c.08,0,.15-.08.18-.18-.18,0-.23,0-.32.1a2.37,2.37,0,0,0-.57.57l-.62.89-.07.17a1.29,1.29,0,0,1-.15.17s0,0,0,0S53.29,3.92,53.32,3.85ZM55.17,3a3.37,3.37,0,0,0-1,1.33Zm-.59,2.29a.12.12,0,0,1,0-.08s.07-.07.1-.1c.27-.39.56-.78.86-1.18l.37-.52s0,0,0,0a1.86,1.86,0,0,0-.22.25,9.69,9.69,0,0,0-1.06,1.5v.05a1.25,1.25,0,0,1-.12.17s0,0,.05,0S54.55,5.35,54.58,5.33ZM55,5.4l.89-1.18c.09-.15.22-.27.32-.42a.31.31,0,0,0,.07-.12,5.88,5.88,0,0,0-1.4,1.82l0,0Z"/><path class="cls-1" d="M55.44,20.94a1,1,0,0,1-1.06-.49c-.59-.72.49-2.49.74-3.16,1.25-3.2,2.63-6.32,3.91-9.5.86-2.07,1.41-4.41,3-6.08A4,4,0,0,1,63.39.6a2.29,2.29,0,0,1,3,1.87,3.74,3.74,0,0,1-.77,3,33,33,0,0,1-3.57,5.22,5.75,5.75,0,0,0-.86,1.23,9.72,9.72,0,0,0-.72,1.4l.05,0A1.21,1.21,0,0,0,60.8,13c1.29-1.47,2.76-3.54,4.71-4.21a2.42,2.42,0,0,1,2.88,1.46c.25,1.2-.74,2.46-1.26,3.47s-2.83,3.79-2.46,5.07c.22.77,2.29-.86,2.54-1.08.42-.3,2.78-3.25,3.59-4.24a.57.57,0,0,1,.74-.05.65.65,0,0,1,0,.79,38.29,38.29,0,0,1-3.32,4.38c-1.18,1.11-2.46,2.25-4.16,2.2a2.69,2.69,0,0,1-2.54-2.22c-.3-1.48,1.5-4.16,2.17-5.44.17-.3,1.06-1.85.59-2s-1,.5-1.31.84c-.69.79-1.4,1.55-2.12,2.34-.37.42-.71.84-1.05,1.28a1.49,1.49,0,0,0-.37.62c-.23.59-1.68,3.2-1.93,3.79a2.49,2.49,0,0,1-1,1.25C56.3,20.67,55.76,21.51,55.44,20.94ZM62.21,9.17A19,19,0,0,0,65,4.59c.12-.27.3-.87,0-1.11,0,0,0,0,0,0s-.35.25-.42.35a14.56,14.56,0,0,0-.81,1.75c-.45.86-.87,1.72-1.26,2.61-.15.32-.3.66-.44,1a.36.36,0,0,0,0,.2A2.53,2.53,0,0,1,62.21,9.17Zm1.25-7.56s0-.05,0-.1a1.35,1.35,0,0,0-.79.76ZM64,3.53v0H64a.7.7,0,0,0,0,.13Zm.35-.47a.28.28,0,0,0-.18.3A1.47,1.47,0,0,0,64.38,3.06Zm.32.27a1.17,1.17,0,0,0,.07-.15c-.12.13-.2.18-.27.25s0,.07-.1.12,0,0,0,0S64.62,3.43,64.7,3.33Z"/><path class="cls-1" d="M82.45,17.93a1.93,1.93,0,0,1-.35.35,11.77,11.77,0,0,1-3,2.46,2.79,2.79,0,0,1-3.89-1.15s-1.31,1-1.48,1.05a4.21,4.21,0,0,1-4.7-.81,4,4,0,0,1-1-1.57,5.64,5.64,0,0,1,1-4.44,11.25,11.25,0,0,1,2.93-3.1A8.57,8.57,0,0,1,75.82,9a4.3,4.3,0,0,1,2.37.57l.44.25c.15-.22.27-.45.4-.67a1.2,1.2,0,0,1,.78-.59.9.9,0,0,1,.23,0,.82.82,0,0,1,.24.1c.08,0,.1.09.2.17a1.8,1.8,0,0,0-.49.64c.05.1.1,0,.12,0A4.85,4.85,0,0,1,80.68,9a.46.46,0,0,0,.17.09c.15.08.12.3.29.37a.62.62,0,0,1,.3.32,5.05,5.05,0,0,1,.25.45,5.08,5.08,0,0,1,.17.51.76.76,0,0,1,0,.28l-.22.34c-.91,1.65-1.73,3.4-2.49,5.12-.25.54-.47,1.11-.69,1.68-.12.32-.49,1-.15,1.35s1.83-.61,2.17-.86A6.25,6.25,0,0,1,82,17.44h.14a1.2,1.2,0,0,1,.3.15S82.57,17.81,82.45,17.93Zm-4.88-6.15h-.24a3.94,3.94,0,0,1-.47.1,7.2,7.2,0,0,0-2.71,1.2,9.58,9.58,0,0,0-2.51,2.76,5.19,5.19,0,0,0-.77,2.69c.08,1.23,1.61,1.18,2.49.83.49-.17,1.5-.78,1.65-1.35a7.3,7.3,0,0,1,.3-1c.42-1.11.88-2.19,1.4-3.25l.74-1.53A.62.62,0,0,0,77.57,11.78Zm-6.67.86c.47-.37.94-.74,1.4-1.06a2.41,2.41,0,0,0,.35-.25.45.45,0,0,0,.1-.14.07.07,0,0,1,.07,0l0,0,0,0a1.21,1.21,0,0,0-.18.05c-.39.27-.78.54-1.15.83a4,4,0,0,0-.45.47Zm1,.34c.2-.07.17-.07.25-.24Zm1,.2-.17.2s.08,0,.1,0,.07-.07.12-.12S72.87,13.21,72.84,13.18Zm.35.25a1.54,1.54,0,0,0-.42.39c.27-.15.32-.19.42-.34v-.05s.1,0,.12,0,0-.05.08-.12A1.45,1.45,0,0,0,73.19,13.43Zm8.42-2.59,0,0v0h0Z"/><path class="cls-1" d="M88.58,29.39l-.27.32h0c0-.1.08-.2.13-.3h0l-.25.3-.41-.15c0-.15.09-.27.09-.44a3.81,3.81,0,0,1-.27.37.29.29,0,0,0-.07-.1c-.07.05-.12.05-.2,0L87,29.17A.13.13,0,0,1,87,29l.15-.3a1.89,1.89,0,0,1,.12-.27.37.37,0,0,0-.22.2c-.07.1-.12.19-.29.17a.75.75,0,0,1-.2-.49.67.67,0,0,1,.1-.32c.1-.15.19-.32.27-.47a.3.3,0,0,1,0-.15c.34-.86.71-1.7,1.06-2.56l1.77-4.26c.64-1.6,1.3-3.18,2-4.78l1.7-4.06c.2-.49.72-1.77.84-2s.49-.69.74-.76.49-.12.34.2l.3-.4a3.67,3.67,0,0,0,.74,0c.44,0,.22.12.52.37s.17.32.12.54l.17,0V10a1.15,1.15,0,0,0,.2-.15,3.36,3.36,0,0,1,4.8.44,4.91,4.91,0,0,1,1.18,3.62v.22l.47-.14a13.53,13.53,0,0,0,1.65-.6,6.93,6.93,0,0,0,1.5-1l.22-.17s.13-.08.2,0-.12.17-.12.27a.79.79,0,0,1,.17-.14c.07-.05.1-.05.15,0l0,0c.18.05.15.2.2.32s0,.07,0,.1-.23.27-.35.39a6.85,6.85,0,0,1-1.8,1.23,13,13,0,0,1-2.36,1,.26.26,0,0,0-.2.23,11.71,11.71,0,0,1-1.4,3.1c-.91,1.53-2.29,3-4.19,2.9a2.79,2.79,0,0,1-2.21-1.23,4,4,0,0,1-.5-2.76,3.92,3.92,0,0,1,1.65-2.06,4.83,4.83,0,0,1,2.74-1.06l1,0h.12c.07-.22.12-.42.17-.64.2-.89.57-2.66-.34-3.3a2.1,2.1,0,0,0-2,.17c-1.77.94-2.34,3.21-3,5-.57,1.38-1.13,2.76-1.73,4.14s-1.23,2.88-1.84,4.33c-.2.52-.42,1-.62,1.53s-.57,1.28-.84,1.94l-.37.94c-.12.22-.22.47-.34.69a1.8,1.8,0,0,1-.27.39.77.77,0,0,1-.3.15.83.83,0,0,0,0-.27.44.44,0,0,1-.08.1c-.07.07-.12.17-.24.17s-.08.05-.15.12C88.5,29.76,88.63,29.58,88.58,29.39Zm1.94-7.88c-.12.27-1.38,3-1.47,3.25A14.78,14.78,0,0,0,90.52,21.51Zm.52.71c-.12.27-1.38,3-1.48,3.25A30.05,30.05,0,0,0,91,22.22Zm3.23-7.83c-.1.2-1,2.19-1,2.39A10.8,10.8,0,0,0,94.27,14.39Zm.34.54c-.07.2-1,2.19-1,2.36A20.93,20.93,0,0,0,94.61,14.93Zm.64-3.77a23.12,23.12,0,0,0-1,2.37C94.32,13.33,95.2,11.33,95.25,11.16Zm.37.52a11.09,11.09,0,0,0-1,2.39C94.69,13.87,95.55,11.88,95.62,11.68Zm1,4.41c.17-.17.17-.17.22-.27a1.15,1.15,0,0,0-.49.51A2.91,2.91,0,0,1,96.58,16.09Zm.3.32a.29.29,0,0,0-.1.07s0,0,0,0S96.85,16.46,96.88,16.41ZM97.3,19a2.7,2.7,0,0,0,.66-.46,7.88,7.88,0,0,0,1.85-2.52,1.94,1.94,0,0,0,.07-.22h-.12a7.59,7.59,0,0,0-1,.15,1.55,1.55,0,0,0-.93.57l-.32.37a2.35,2.35,0,0,0-.47,1.42,2.58,2.58,0,0,0,.12.72A1.3,1.3,0,0,0,97.3,19Zm-.13-8.57a0,0,0,0,1,0,0,.1.1,0,0,0-.05.07Zm.2,6.06a0,0,0,0,0,0,0l-.15.22a0,0,0,0,0,0,0Zm.17.1a.49.49,0,0,0-.19.22s0,0,0,0A2.79,2.79,0,0,0,97.54,16.63Zm.13-.07s0,0,0,0a.43.43,0,0,1-.07.1A.14.14,0,0,1,97.67,16.56ZM99.46,18c-.37.39-.74.81-1.1,1.23C98.67,19.14,99.32,18.33,99.46,18Zm.67.62a3,3,0,0,0-.45.49A1.31,1.31,0,0,0,100.13,18.58Zm1.13.36L100,20.42A4.38,4.38,0,0,0,101.26,18.94Zm-.27-.22c-.27.32-.57.67-.86,1A2.42,2.42,0,0,0,101,18.72Z"/><path class="cls-1" d="M104.51,15.18A9.94,9.94,0,0,1,110,9c2.12-.77,4.73.09,5.27,2.46.37,1.62-.29,3.35-.86,4.85a.56.56,0,0,0,0,.1,0,0,0,0,1,0,0c.25-.22.49-.44.71-.66a27.67,27.67,0,0,0,2.39-2.59l1-1.18s.34-.37.37-.34c.93-.2-.2,1.18-.35,1.4-.69.94-1.7,2.14-1.7,2.14s-1.11,1.16-1.67,1.6-1,.94-1.73,1.46c-1.28,1.45-3,2.7-4.9,2.63A4.28,4.28,0,0,1,104.51,15.18Zm5.1-4.93a7.46,7.46,0,0,0-1.43.89,3.86,3.86,0,0,0-1.16,1.3A15.27,15.27,0,0,1,109.61,10.25Zm3.72,5a7.23,7.23,0,0,0,.68-2.44c0-1.21-1-1.53-2-1.26A6.56,6.56,0,0,0,109,14a7.53,7.53,0,0,0-1.9,3.82,1.42,1.42,0,0,0,1,1.43,3,3,0,0,0,1.21.12C111.28,19.09,112.56,17,113.33,15.23ZM108.67,12a2.18,2.18,0,0,0-.86.94Zm.71.47a3.85,3.85,0,0,0-1.13,1.21s0,0,0,0C108.65,13.3,109,12.89,109.38,12.49Zm.92-.19a4.82,4.82,0,0,0-1.65,1.52A14.09,14.09,0,0,1,110.3,12.3Zm1.87,5.93,0,0-.07.07s0,0,0,0Zm.19-.22,0-.08h0s0,.05,0,.08Z"/><path class="cls-1" d="M116.13,15.84a10.65,10.65,0,0,1,1.38-1.92c.57-.64,1.13-1.26,1.67-1.9l.42-.66a.64.64,0,0,0,.05-.2.56.56,0,0,1-.24.08,1.08,1.08,0,0,1-.94-.08s-.07-.07-.1-.1,0-.12,0-.14a.16.16,0,0,1,.1,0,1.19,1.19,0,0,0,.71-.22,2.61,2.61,0,0,0-.17-.2,5.06,5.06,0,0,1-1-1.06c-1.21-1.74.76-3.62,2.56-3.15a2.36,2.36,0,0,1,1.92,1.63c.18,1-.61,1.67-1.2,2.29.12.14.29.27.44.42a2.18,2.18,0,0,1,.47.44,1.75,1.75,0,0,1,.24.54c.13,1.33-1,2.37-1.74,3.25-.2.2-.37.42-.57.59s-.35.45-.47.64-.32.45-.44.64a4.54,4.54,0,0,0-.37.77c-.27.74-.52,2.24.74,2.07,1.62-.23,2.68-1.9,3.82-2.91.46-.35,1.47-1.55,1.69-1.31.47.1-.32,1.51-.83,2.07-.08.13-.18.22-.25.35a3.33,3.33,0,0,0-.34.32,3.27,3.27,0,0,1-.25.32,2,2,0,0,1-.27.37c-1,1.28-2.32,2.51-4.09,2.41A3.55,3.55,0,0,1,116.13,15.84Zm1.72-1.11c.3-.34.62-.69.92-1.06a7,7,0,0,0,.93-1.1.19.19,0,0,0,0-.1,16,16,0,0,0-2,2.41C117.76,14.83,117.83,14.78,117.85,14.73Zm1.33-.17a4.25,4.25,0,0,1,.35-.39,2.27,2.27,0,0,1,.49-.57,2,2,0,0,0,.47-.64,2.3,2.3,0,0,0-.32.37,2.33,2.33,0,0,1-.37.39c-.1.15-.25.27-.34.42a9.83,9.83,0,0,0-1,1.21C118.72,15.08,119,14.83,119.18,14.56Zm0,1.28a5.66,5.66,0,0,1,.37-.49c.37-.44.74-.91,1.16-1.38a4.18,4.18,0,0,0,.4-.44,3.13,3.13,0,0,0,.34-.42,2.28,2.28,0,0,0-.39.37,11.84,11.84,0,0,0-1.75,2.16,7.05,7.05,0,0,1-.52.62A2.59,2.59,0,0,0,119.18,15.84Zm.18-8.69c-.3,0-.42.1-.47.32C119,7.34,119.26,7.32,119.36,7.15Zm.19,8.74a16,16,0,0,1,1-1.3l.37-.42c.27-.32.56-.45.76-.84l-.44.37c-.13.1-.22.25-.37.37a4.32,4.32,0,0,1-.35.42c-.32.39-.66.86-1,1.28a5.15,5.15,0,0,1-.37.51A2.75,2.75,0,0,0,119.55,15.89Zm1.26-6.33a4.84,4.84,0,0,0,.57-.64,1,1,0,0,0,.27-.57.32.32,0,0,0,0-.14,1.08,1.08,0,0,0-.93,1.4A.1.1,0,0,0,120.81,9.56Z"/><path class="cls-2" d="M25.41,44c-.49-3,.67-6.27,1.76-9.05A29.89,29.89,0,0,1,32.74,26c2.6-2.89,6.3-5.88,10.49-5.25A6,6,0,0,1,48,24.06a4.7,4.7,0,0,1,.39,1.86,7.26,7.26,0,0,1-.53,2.92,12.69,12.69,0,0,1-2.53,3.28c-.78.88-1.55,2.18-2.78,2.43.38-.43.91-.85,1.3-1.34-.53.39-1,1.06-1.59,1.27,0-.11-.17-.21-.21-.32-2-.49-1.12-2.43-.28-3.66.46-.7,3.06-4.58,4-3.63a2.9,2.9,0,0,0-.49.78,4.38,4.38,0,0,0,.81-.64c.17.22.31.25.24.6,1.94-3.45-2.25-3.38-4.47-2.32C36.11,28,32.24,33.88,30.38,39.83c-.95,2.92-1.17,7.64,3.06,7.71,3.48,0,6.51-2.61,8.87-4.86h0c.36-.18.88-1,1.31-.78s.07,1.94-.11,2.33a17.74,17.74,0,0,1-1.83,2.67c.25-.35.35-.28.63-.6a10.45,10.45,0,0,1-4.78,4.33,10.15,10.15,0,0,1-1.13.43A8.79,8.79,0,0,1,25.41,44Zm14-21.37A15.24,15.24,0,0,0,37,23.78a7.29,7.29,0,0,0-1.87,1.54C36.43,24.23,38,23.53,39.39,22.58Zm-1.87,2.6A3.85,3.85,0,0,0,36,26.45Zm1.09.74a7.55,7.55,0,0,0-2.14,1.76s0,0,0,0Zm0,.85c.6-.42,1.23-.78,1.86-1.2A10.22,10.22,0,0,0,36.89,28C37.45,27.61,38,27.16,38.58,26.77Zm3.59,16.58.63-.6a2.27,2.27,0,0,0-.28.21,5.59,5.59,0,0,0-1,1.09ZM43,33.6l0,0a2,2,0,0,0-.28.25s0,0,.07,0A1.85,1.85,0,0,0,43,33.6Zm.39-.39,0,0-.21.22a0,0,0,0,0,0,0Z"/><path class="cls-2" d="M62,46.52a3.78,3.78,0,0,1-.49.49,17.24,17.24,0,0,1-4.3,3.52c-2.25,1.06-4.82.32-5.56-1.66,0,0-1.86,1.38-2.11,1.52a6,6,0,0,1-6.72-1.16A5.63,5.63,0,0,1,41.36,47c-.64-2.14.21-4.54,1.37-6.33a15.84,15.84,0,0,1,4.19-4.44,12.13,12.13,0,0,1,5.56-2.39,5.93,5.93,0,0,1,3.38.81l.63.35c.22-.32.39-.63.57-.95a1.73,1.73,0,0,1,1.12-.85,1.19,1.19,0,0,1,.32,0,1.17,1.17,0,0,1,.35.14c.11,0,.14.14.28.25a2.78,2.78,0,0,0-.7.91c.07.14.14.07.18,0a6.57,6.57,0,0,1,.81-.77.63.63,0,0,0,.24.14c.21.1.18.42.43.53s.31.28.42.45.24.43.35.64a5,5,0,0,1,.25.74c0,.1,0,.24-.07.38l-.32.5c-1.3,2.36-2.46,4.85-3.56,7.32-.35.77-.67,1.58-1,2.39-.18.46-.71,1.48-.21,1.94.67.63,2.6-.88,3.09-1.23a8.8,8.8,0,0,1,2.19-1.66h.21a1.65,1.65,0,0,1,.42.21S62.13,46.34,62,46.52Zm-7-8.8h-.35a5.32,5.32,0,0,1-.67.14,10.31,10.31,0,0,0-3.87,1.72,13.76,13.76,0,0,0-3.59,3.94,7.31,7.31,0,0,0-1.09,3.84c.1,1.76,2.28,1.69,3.55,1.2.71-.25,2.15-1.13,2.36-1.94a13,13,0,0,1,.42-1.44c.6-1.59,1.27-3.13,2-4.65l1-2.18A.86.86,0,0,0,55,37.72ZM45.44,39c.67-.53,1.34-1.06,2-1.52a4.73,4.73,0,0,0,.49-.35.64.64,0,0,0,.14-.21.15.15,0,0,1,.11,0l0,0-.07.07a2.17,2.17,0,0,1-.24.07c-.57.39-1.13.78-1.66,1.2a5,5,0,0,0-.63.67Zm1.37.49c.29-.11.25-.11.36-.35Zm1.41.28L48,40a.2.2,0,0,0,.14,0c.07,0,.1-.11.17-.18S48.26,39.76,48.22,39.72Zm.5.35a2.15,2.15,0,0,0-.6.57,1.31,1.31,0,0,0,.6-.5v-.07c.07,0,.14,0,.17,0s0-.07.11-.18C48.86,40,48.79,40,48.72,40.07Zm12-3.69,0,0v0h0Z"/><path class="cls-2" d="M63.85,50.6l-1.09-.53a3.67,3.67,0,0,1-1.2-1A2.68,2.68,0,0,1,60.89,48a4,4,0,0,1-.07-1.58,7.53,7.53,0,0,1,.42-1.76c.29-.85.57-1.73.92-2.54.67-1.62,2.43-6,3.1-7.53.35-.85.74-1.69,1.09-2.54.1-.21.18-.38.25-.56a3,3,0,0,0,.17-.42,6.2,6.2,0,0,0-2,0,1.53,1.53,0,0,0-1,.7l.1.14c.08.18,0,.25-.1.32-.32.1-.77-.32-.85-.63a.58.58,0,0,1,0-.32,1.38,1.38,0,0,1,.5-.71A2.45,2.45,0,0,1,65.12,30c.63,0,1.26.07,1.9.11h.17l.25-.57c.56-1.3,1.13-2.53,1.73-3.76a12.07,12.07,0,0,1,1.51-2.43,6.1,6.1,0,0,1,1.62-1.41,2,2,0,0,1,1.2-.21,5.48,5.48,0,0,1,1.93.84,5.59,5.59,0,0,1,1.09.95A2,2,0,0,1,77,25.25a11.66,11.66,0,0,1-1.55,3.67c-.43.66-.85,1.12-1.31,1.76l-.17.24a11.5,11.5,0,0,0,1.62,0,1.69,1.69,0,0,0,1-.43,1.64,1.64,0,0,0,.32-.14.25.25,0,0,0,0,.14s0,.07,0,.11h.07s.11-.07.18-.14a.85.85,0,0,0,.21.14c.21.14.17.56,0,.74-.71.84-1.87.67-2.85.67-.25,0-.6,0-1.24,0a18.18,18.18,0,0,1-3.59,4,.59.59,0,0,0-.17.24c-.81,1.94-2.29,5.6-3.1,7.5-.32.81-.63,1.65-.92,2.46-.17.64-.63,1.69-.17,2.08S66.91,48,67,48c2.43-1.54,4.15-3.69,6.23-5.52.53-.5,1-1,1.58-1.52a5.33,5.33,0,0,0,.42-.49l1.34-1.3a2.51,2.51,0,0,0,.21-.14s0,0,0,.07a2.24,2.24,0,0,1-.11.28,1.24,1.24,0,0,0,.29-.25l.21.11a.38.38,0,0,1,.14.56,3.07,3.07,0,0,1-.53.67q-1.17,1.32-2.43,2.64c1-1-5.53,6.16-5,5.67a10,10,0,0,1-2.93,1.76,3.16,3.16,0,0,1-1.83.14,1.2,1.2,0,0,0-.38,0A.5.5,0,0,1,63.85,50.6Zm3.2-15.52a49.15,49.15,0,0,0-2.11,4.64C65.12,39.33,66.91,35.43,67.05,35.08Zm.74,1a20.6,20.6,0,0,0-2.11,4.64C65.86,40.36,67.65,36.45,67.79,36.1ZM72,31.91a3.82,3.82,0,0,0-.56-.07c-.07.21-.67,1.37-1,2.11Zm-.81,1.86.14-.14v0a.8.8,0,0,0-.21.17Zm1-10.24c.14-.14.42-.18.53-.42a1.21,1.21,0,0,0-1.06.84Zm.57,7.15.63-.88A16.13,16.13,0,0,0,75,26.94a3.79,3.79,0,0,0,.36-1.23,1.71,1.71,0,0,0,0-.84,2.18,2.18,0,0,0-.67.56c-.35.53-.74,1.06-1.05,1.62a32,32,0,0,0-1.69,3.55s0,.11-.07.18l.77.07ZM72.3,43.59l-.11.11v0A.65.65,0,0,0,72.3,43.59Zm.6-.42-.07-.07a.57.57,0,0,1-.14.11s0,0,0,.07Zm.1-18.9c-.24.1-.24.1-.28.28Zm.35,18.44a0,0,0,0,0,0,0,.67.67,0,0,0-.21.18s0,0,0,0A1.12,1.12,0,0,1,73.35,42.71Zm.71-18a2.12,2.12,0,0,0-.64.81A2.76,2.76,0,0,0,74.06,24.69ZM75.29,41s0,0,0-.07A20.92,20.92,0,0,0,73.6,42.4l.07.07ZM74.8,24.8c-.6.35-.81.56-.85.84Z"/><path class="cls-2" d="M87.61,41.31a8.91,8.91,0,0,1-.84,1c-2.26,2.57-4.16,5.56-7.33,7.64a7.18,7.18,0,0,1-6.33.66C69.38,49.23,69.41,45,71,42a23.79,23.79,0,0,1,4.37-5.84c2-2.11,5.24-4.12,8-2.15a3.05,3.05,0,0,1,1.27,1.94c.53,3-1.8,5.74-3.91,6.83a7,7,0,0,1-4.72.42.43.43,0,0,1-.17,0,1.71,1.71,0,0,0-.21.24,12.18,12.18,0,0,0-1.31,3.24c-.14.71-.28,2,.43,2.54,1,.74,3.06-.64,3.9-1.09,4.19-2.93,4.79-4.51,7.29-6.87l.88-.74c.14-.1.25-.17.39,0,0,0,.17,0,.24,0C87.79,40.74,87.86,41,87.61,41.31ZM74.34,39c.18,0,.25-.14.32-.21a19.2,19.2,0,0,1,2.21-2.29,5.25,5.25,0,0,1,.46-.49s.14-.07.07-.18c-.24.18-.49.32-.7.49s-.49.42-.71.64a8.2,8.2,0,0,0-.59.59l-.6.71A3.74,3.74,0,0,0,74.34,39Zm1.9-.14a3.44,3.44,0,0,0-1.09,1.41Zm1.23.38-.07-.07a9.39,9.39,0,0,0-1.51,2.19c.49-.64,1-1.31,1.44-1.94a.57.57,0,0,0,.11-.14Zm.25.53a1.3,1.3,0,0,0-.25.18c-.24.28-.49.6-.74.91,0,.07-.14.14-.21.21a.63.63,0,0,1-.35.5v.21h0a.39.39,0,0,0,0-.21c.28,0,.35-.18.42-.39,0,0,0-.07-.07-.11A.21.21,0,0,0,76.8,41c.29-.38.57-.73.88-1.09a.2.2,0,0,1,0-.14,1,1,0,0,0,.39-.53C77.93,39.41,77.75,39.48,77.72,39.72ZM76.66,41.9l-.07.15A3.23,3.23,0,0,0,78.88,42a6.38,6.38,0,0,0,2.39-1.86,5.9,5.9,0,0,0,1.27-2.71,1,1,0,0,0-.07-.71c-.28.11-.53.18-.74.25a8.14,8.14,0,0,0-2.39,1.66A19,19,0,0,0,76.66,41.9ZM78.32,39s0,0,0,0l.18-.11a.13.13,0,0,0-.07,0Z"/><path class="cls-2" d="M79.23,59.79a6.8,6.8,0,0,1,1.83-5,9.2,9.2,0,0,1,4.26-2.85,16.11,16.11,0,0,1,4.3-.6c.14,0,.28,0,.42-.07.17-.35.46-.91.49-1-.1.14-.91.25-1,.25-1.41.28-3,.42-4.23-.49-4-3-.81-10,2.08-12.75A15.07,15.07,0,0,1,91,34.62c1.66-.81,3.66-1.59,5.46-1.06a6.28,6.28,0,0,1,1.51.81c.07,0,.18.07.29.14a2.28,2.28,0,0,0,.24-.39,1.7,1.7,0,0,1,.85-.73.65.65,0,0,1,.84.17,2.34,2.34,0,0,0-.14.49c.07.15.18.11.25,0l.38-.32a4.77,4.77,0,0,1,.46.25l.11.56c.07-.07.17-.1.28-.21.28.14.42.46.63.71,0,0,0,.07,0,.07.35.24.28.52.1.84,0,0,0,.07,0,.11.17,0,.21-.18.35-.14a.26.26,0,0,1,0,.35c-.07.21-.21.38-.28.56-2.18,4.19-4.12,8-6.09,12.32l-.32.71c.11,0,.6-.22.67-.22a10.69,10.69,0,0,0,5.28-3.3c.46-.53.85-1,1.3-1.62a3,3,0,0,1,1-1c.39-.18,1.09.07.81.63l-.63,1.06a20,20,0,0,1-2.4,2.75,10.25,10.25,0,0,1-1.83,1.44c-.91.56-1.69,1-2.75,1.55a20.06,20.06,0,0,1-2,.91,2.93,2.93,0,0,0-.53.21c-1.48,3.31-2.68,7.19-5.1,9.9-1.76,2-5,3.09-7.43,1.83A6.1,6.1,0,0,1,79.23,59.79Zm6.8,0a56.69,56.69,0,0,0,3.09-6.55c-2.74.14-5.07.92-6.4,2.71-1.17,1.55-1.76,3.84-.43,5S85.22,61,86,59.79Zm1,.53a3.57,3.57,0,0,0,.53-1.17,5.39,5.39,0,0,0-.88,1.41A.63.63,0,0,0,87,60.32Zm.21-21.13s0-.1,0-.14a.89.89,0,0,0,.24-.17c.64-.6,1.27-1.16,1.94-1.69.25-.18.46-.39.7-.57a.2.2,0,0,0,.07-.24.59.59,0,0,1-.24.17,11.63,11.63,0,0,0-2,1.59,5.89,5.89,0,0,0-.67.74s0,.14-.07.17c-.21,0-.21.25-.32.36A.54.54,0,0,0,87.22,39.19ZM92,47.29c.7-1.55,1.94-4.33,2.67-5.88.39-.74.74-1.51,1.13-2.25a5.09,5.09,0,0,0,.88-1.94,1,1,0,0,0-.35,0,6.12,6.12,0,0,0-2.11.67,13.44,13.44,0,0,0-5.11,4.5c-.88,1.31-2.92,6.3,0,6.23C90,48.66,91.55,48.21,92,47.29Zm-3.38-7.78c.11,0,.18-.07.18-.28a1.68,1.68,0,0,0-.18.28c-.21.07-.28.25-.39.42C88.42,39.83,88.59,39.72,88.63,39.51Zm1.06.6.14-.11s0-.07.07-.1,0,0-.07,0l-.14.25a1.19,1.19,0,0,0-.6.77A2.52,2.52,0,0,0,89.69,40.11Zm-.46,1.37a.13.13,0,0,1,0-.07h0a.13.13,0,0,0,0,.11A0,0,0,0,0,89.23,41.48ZM90.14,61l0-.07a2.6,2.6,0,0,0-.6,1A3.35,3.35,0,0,0,90.14,61Zm.5-20.88.17-.21v0a5.38,5.38,0,0,0-1.16,1c0,.07-.14.1-.07.24C90,40.74,90.28,40.39,90.64,40.07ZM90,60c-.32.36-.32.36-.35.64A1.57,1.57,0,0,0,90,60Zm.42.36c-.21.17-.28.31-.25.45C90.28,60.74,90.32,60.63,90.39,60.39ZM91,39.48a.15.15,0,0,0,.11,0l0,0H91l-.17.31C91,39.72,91.06,39.72,91,39.48Z"/><path class="cls-2" d="M101.69,42.57c1-3.59,4.15-7.56,7.78-8.9,3-1.09,6.76.14,7.53,3.52.53,2.32-.42,4.78-1.23,6.93,0,0,0,.07,0,.14a0,0,0,0,1,0,0c.35-.32.7-.64,1-.95a40.83,40.83,0,0,0,3.41-3.7L121.68,38s.49-.53.53-.49c1.34-.28-.28,1.69-.49,2-1,1.33-2.43,3.06-2.43,3.06s-1.59,1.65-2.4,2.29-1.37,1.33-2.46,2.07c-1.83,2.08-4.29,3.88-7,3.77A6.13,6.13,0,0,1,101.69,42.57Zm7.28-7a12.22,12.22,0,0,0-2,1.27,5.37,5.37,0,0,0-1.65,1.87A21.78,21.78,0,0,1,109,35.53Zm5.32,7.11a10.13,10.13,0,0,0,1-3.48c0-1.73-1.48-2.18-2.82-1.8-1.83.53-3.2,2-4.37,3.49s-2.6,3.48-2.71,5.45a2,2,0,0,0,1.45,2.05,4.33,4.33,0,0,0,1.72.17C111.37,48.17,113.2,45.11,114.29,42.64Zm-6.65-4.57a3,3,0,0,0-1.24,1.34Zm1,.67A5.33,5.33,0,0,0,107,40.46s0,0,.07,0C107.6,39.9,108.13,39.3,108.66,38.74Zm1.3-.29a7,7,0,0,0-2.36,2.19A21.39,21.39,0,0,1,110,38.45Zm2.68,8.49,0,0-.11.11s0,0,0,0Zm.28-.32.07-.1h0a.15.15,0,0,1-.07.1Z"/><path class="cls-2" d="M118.3,43.52a15.16,15.16,0,0,1,2-2.74c.81-.92,1.62-1.8,2.4-2.71l.59-1a1,1,0,0,0,.07-.28.75.75,0,0,1-.35.1,1.49,1.49,0,0,1-1.33-.1c-.08,0-.11-.11-.15-.15s0-.17.07-.21a.35.35,0,0,1,.15,0,1.79,1.79,0,0,0,1-.32,2,2,0,0,0-.25-.28,7.32,7.32,0,0,1-1.44-1.51c-1.73-2.5,1.09-5.18,3.66-4.51,1.12.25,2.53,1.06,2.74,2.32s-.88,2.4-1.72,3.28c.17.21.42.38.63.6a2.51,2.51,0,0,1,.67.63,3.15,3.15,0,0,1,.35.77c.18,1.9-1.37,3.38-2.5,4.65-.28.28-.52.6-.81.85s-.49.63-.66.91a10.37,10.37,0,0,0-.64.92,6.1,6.1,0,0,0-.53,1.09c-.38,1-.74,3.2,1.06,2.95,2.32-.31,3.84-2.71,5.46-4.15.66-.49,2.11-2.22,2.42-1.87.67.15-.45,2.15-1.19,3-.11.18-.25.32-.35.49s-.32.29-.5.46a2.21,2.21,0,0,1-.35.46,2.25,2.25,0,0,1-.39.53c-1.44,1.83-3.31,3.59-5.84,3.45A5.08,5.08,0,0,1,118.3,43.52Zm2.47-1.58c.42-.49.88-1,1.3-1.51a10.25,10.25,0,0,0,1.34-1.59.27.27,0,0,0,.07-.14,21.4,21.4,0,0,0-2.89,3.45C120.62,42.08,120.73,42,120.77,41.94Zm1.9-.25a6.13,6.13,0,0,1,.49-.56,3.08,3.08,0,0,1,.7-.81,2.91,2.91,0,0,0,.67-.91,3.88,3.88,0,0,0-.46.52,4.2,4.2,0,0,1-.52.57c-.14.21-.36.38-.5.59a14.09,14.09,0,0,0-1.4,1.73C122,42.43,122.35,42.08,122.67,41.69Zm0,1.83a6.07,6.07,0,0,1,.52-.7c.53-.63,1.06-1.3,1.66-2a4.76,4.76,0,0,0,.56-.63,4.18,4.18,0,0,0,.49-.6,3.92,3.92,0,0,0-.56.52,17.79,17.79,0,0,0-2.5,3.1,7.45,7.45,0,0,1-.74.88A4.07,4.07,0,0,0,122.67,43.52Zm.24-12.42c-.42,0-.6.14-.67.46C122.45,31.38,122.77,31.34,122.91,31.1Zm.28,12.49c.46-.63,1-1.26,1.48-1.86l.53-.6c.39-.46.81-.63,1.09-1.2l-.63.53c-.18.14-.32.35-.53.53s-.32.39-.49.6c-.46.56-1,1.23-1.38,1.83-.17.24-.35.53-.52.74C122.91,44,123.05,43.77,123.19,43.59Zm1.8-9a6.36,6.36,0,0,0,.81-.92,1.34,1.34,0,0,0,.39-.81.51.51,0,0,0,0-.21,1.56,1.56,0,0,0-1.34,2S125,34.58,125,34.55Z"/><path class="cls-2" d="M127.49,47.29c-.42-2.39,1.58-5.35,2.6-7.39.67-1.37,2-3.94,2.68-5.35.07-.18.17-.35.24-.53a2,2,0,0,1,1.59-1,.7.7,0,0,1,.63.29l-.21.31v.07c.21.11.35-.1.56-.1a.15.15,0,0,1,.11,0c.25.07.18.46.49.53.11.21.25.39.35.6a3.86,3.86,0,0,1,.25.7,3.72,3.72,0,0,1,.14.71,1.51,1.51,0,0,1-.14.7c-1.51,3.13-3.17,6.2-4.5,9.43-.15.36-.71,1.27-.39,1.62.42.53,1.9-.63,2.25-.88,2.36-1.54,5.88-7.6,4.4-5-.14.25.74-1.2,1.16-1.27.11,0,.36,0,.43.07s.24.11.35.21a1,1,0,0,1,.31,1.06l-.42.6c-2.5,3.55-4,7.22-8.48,7.92A4.1,4.1,0,0,1,127.49,47.29Zm7.25-13.17-.07-.07,0,0s0,.07,0,.11S134.7,34.12,134.74,34.12Zm0-3.9a4.61,4.61,0,0,1,.77-3.7c.91-.95,3-.35,3.84.46,1.4,1.2-.07,2.29-1.06,3.17-.7.63-1.87,2.22-2.89,1.37A2.08,2.08,0,0,1,134.78,30.22Z"/><path class="cls-2" d="M157.34,46.52a3.78,3.78,0,0,1-.49.49,17.24,17.24,0,0,1-4.3,3.52c-2.25,1.06-4.82.32-5.56-1.66,0,0-1.87,1.38-2.11,1.52-2,1.16-5.11.46-6.73-1.16a5.6,5.6,0,0,1-1.4-2.26c-.64-2.14.21-4.54,1.37-6.33a15.7,15.7,0,0,1,4.19-4.44,12.08,12.08,0,0,1,5.56-2.39,5.93,5.93,0,0,1,3.38.81l.63.35c.21-.32.39-.63.57-.95a1.73,1.73,0,0,1,1.12-.85,1.16,1.16,0,0,1,.32,0,1.42,1.42,0,0,1,.35.14c.11,0,.14.14.28.25a2.65,2.65,0,0,0-.7.91c.07.14.14.07.17,0a8.39,8.39,0,0,1,.81-.77.61.61,0,0,0,.25.14c.21.1.18.42.42.53s.32.28.43.45.24.43.35.64a6.39,6.39,0,0,1,.24.74c0,.1,0,.24-.07.38l-.31.5c-1.31,2.36-2.47,4.85-3.56,7.32-.35.77-.67,1.58-1,2.39-.18.46-.71,1.48-.22,1.94.67.63,2.61-.88,3.1-1.23a9,9,0,0,1,2.18-1.66h.22a1.83,1.83,0,0,1,.42.21S157.51,46.34,157.34,46.52Zm-7-8.8H150a5.72,5.72,0,0,1-.67.14,10.31,10.31,0,0,0-3.87,1.72,13.94,13.94,0,0,0-3.6,3.94,7.5,7.5,0,0,0-1.09,3.84c.11,1.76,2.29,1.69,3.56,1.2.7-.25,2.15-1.13,2.36-1.94a9.78,9.78,0,0,1,.42-1.44c.6-1.59,1.27-3.13,2-4.65l1.05-2.18A.91.91,0,0,0,150.37,37.72ZM140.83,39c.67-.53,1.34-1.06,2-1.52a4.73,4.73,0,0,0,.49-.35.85.85,0,0,0,.14-.21.13.13,0,0,1,.1,0l0,0-.07.07a2.33,2.33,0,0,1-.25.07c-.56.39-1.12.78-1.65,1.2a5.81,5.81,0,0,0-.64.67Zm1.37.49c.28-.11.25-.11.35-.35Zm1.41.28-.25.28c.07,0,.11,0,.14,0a1,1,0,0,0,.18-.18S143.64,39.76,143.61,39.72Zm.49.35a2.46,2.46,0,0,0-.6.57,1.21,1.21,0,0,0,.6-.5v-.07c.07,0,.14,0,.18,0s0-.07.1-.18C144.24,40,144.17,40,144.1,40.07Zm12-3.69,0,0v0h0Z"/><path class="cls-2" d="M159.41,51c-.14,0-.24-.11-.38-.14s-.15,0-.18,0a.42.42,0,0,1-.42-.07,3.07,3.07,0,0,1-.67-.46,1.39,1.39,0,0,1-.35-.28A4.54,4.54,0,0,1,156,48.59a7.36,7.36,0,0,1-.56-1,5.47,5.47,0,0,1,2.18-6.16,6.94,6.94,0,0,1,5.84-.7c-.21-1.62-1.2-1.66-2.15-2.75a3.11,3.11,0,0,1-.17-3.8c1.51-2,5.67-1.72,7.39-.07.63.6,1.55,3,.28,3.48-1,.36-1.23-.81-1.79-1.33a2.59,2.59,0,0,0-1.24-.67c-1.19-.28-2.81.39-1.58,1.62.53.53,1.16.91,1.69,1.41a5.82,5.82,0,0,1,1.23,1.76.26.26,0,0,0,.28.17,15.71,15.71,0,0,0,3.91-.74,5.2,5.2,0,0,0,1.83-1.16c.18-.21.18-.21.46-.21-.11.18-.18.35-.25.49l0,0a.93.93,0,0,1,.28-.28.27.27,0,0,1,.18-.07s0,.14.07.21a.25.25,0,0,0,.14,0,3.59,3.59,0,0,1,.21.35.85.85,0,0,1-.07.21h.07s0,0,0,.08a4.77,4.77,0,0,1-1.62,1.51,8.62,8.62,0,0,1-2.78,1c-.56.15-1.12.22-1.69.32-.07,0-.14,0-.17,0s-.21.07-.21.28a7.62,7.62,0,0,1,.1.88,5.64,5.64,0,0,1-.28,2.32,7.57,7.57,0,0,1-1.06,2.15,8.7,8.7,0,0,1-2.6,2.5,5.43,5.43,0,0,1-2.78.91A4,4,0,0,1,159.41,51Zm-2.25-7.15,0-.07c-.49.35-.59.46-.66.77C156.7,44.3,156.91,44.05,157.16,43.84Zm1.9,1.51,0,0-.18.21s0,0,0,0Zm2.78.74a5.1,5.1,0,0,0,1.45-3.23c-.07,0-.15,0-.18,0-1.51.28-2.29,1.12-3.49,2.21-.56.57-1,1.34-.56,1.87S160.89,46.9,161.84,46.09Zm1.52-.63c-.39.49-.81.95-1.2,1.41A2.14,2.14,0,0,0,163.36,45.46Zm1.09,1.16s0,0,0-.07a4.32,4.32,0,0,0-.35.42l.07.07Zm0-10.17h0s-.07.07-.07.1h0Zm1.23,10.7c-.28.32-.56.63-.85,1A2.12,2.12,0,0,0,165.68,47.15Zm.42.53s0,0-.07-.07c-.39.53-.81,1-1.2,1.55A4,4,0,0,0,166.1,47.68Z"/></g></g></svg>