<svg xmlns="http://www.w3.org/2000/svg" viewBox="0 0 222.69 102.64"><defs><style>.cls-1{fill:#f9e5e1;}.cls-2{fill:#e4b5a5;}</style></defs><title>titleObjetivo</title><g id="Camada_2" data-name="Camada 2"><g id="Camada_1-2" data-name="Camada 1"><path class="cls-1" d="M17,37a3.93,3.93,0,0,1-1.39-.31,8.07,8.07,0,0,1-3.12-2.12c-.12-.14-.23-.25-.34-.36a6.83,6.83,0,0,1-.51-.58,8.57,8.57,0,0,1-2.46.43,7.45,7.45,0,0,1-1.65-.16,8.57,8.57,0,0,1-6.34-5.48C-.18,24.77.76,21,1.73,18.05A40.46,40.46,0,0,1,7.27,6.88C9.43,3.94,13.5.5,17.89.5A8.12,8.12,0,0,1,20.7,1c2.06.75,3.55,2.74,4.21,5.6,1.41,6.29-1.14,12.49-2.79,15.62-.77,1.43-1.69,3.11-2.76,4.71-1.68,2-2.5,3-2.93,3.48l.37.55.26.32a8.89,8.89,0,0,1,.56.73,1.13,1.13,0,0,0,.23.26l.13.13a3.53,3.53,0,0,1,.36.3,3.48,3.48,0,0,0,.44.36,2.76,2.76,0,0,0,.81.4,1,1,0,0,1,.65.4.78.78,0,0,1,.6.43.76.76,0,0,1-.09.75,1,1,0,0,1-.19.7.75.75,0,0,1-.41.25.84.84,0,0,1-.73.41l-.27,0h-.06v0l-.14.15a1,1,0,0,1-.78.3h-.11a1.12,1.12,0,0,0-.27.05l-.32.07A2.42,2.42,0,0,1,17,37ZM19.38,5.57a4,4,0,0,0-.8.09c-3.06.66-5.72,3.74-7.4,6.2A27.12,27.12,0,0,0,7.39,20c-.52,1.81-1.58,7.63-.27,9.36a1,1,0,0,0,.86.44,2.64,2.64,0,0,0,1.09-.3,12.86,12.86,0,0,1-.66-4.05,3.19,3.19,0,0,1,1.23-2.67,2,2,0,0,1,1.21-.42H11l.17,0a1.09,1.09,0,0,1,.34-.06.75.75,0,0,1,.26,0l.58.09a3,3,0,0,1,1.58.72,2.62,2.62,0,0,1,.8,1.38c0,.13,0,.24,0,.36a31.91,31.91,0,0,0,5.37-11.31l.06-.23c.47-1.71,1.58-5.73.45-7.22A1.52,1.52,0,0,0,19.38,5.57Z"/><path d="M17.89,1a7.57,7.57,0,0,1,2.63.47c2.24.81,3.4,3.05,3.9,5.24,1.16,5.13-.35,10.73-2.74,15.28-.85,1.58-1.74,3.16-2.74,4.67-.19.23-3.09,3.7-3.16,3.7h0c.23.31.42.62.62.89s.57.69.81,1a2.3,2.3,0,0,0,.42.46c.31.23.58.54.89.73a3.06,3.06,0,0,0,1,.47.51.51,0,0,1,.35.19c.08.12.15.19.27.19s.38.2.23.43a.51.51,0,0,0-.12.46c0,.19-.07.31-.38.31-.12.27-.22.37-.41.37l-.21,0c-.11,0-.23,0-.35,0H18.7c-.05,0-.09,0-.11.05s0,.19,0,.31a.53.53,0,0,1-.42.15h-.11a3.85,3.85,0,0,0-.66.13l-.4,0a3.53,3.53,0,0,1-1.22-.27,7.56,7.56,0,0,1-2.93-2c-.27-.31-.58-.58-.81-.89a.47.47,0,0,0-.36-.17l-.15,0a9.78,9.78,0,0,1-2.35.38,7.06,7.06,0,0,1-1.54-.15,8.11,8.11,0,0,1-6-5.17c-1.23-3.28-.54-6.79.54-10a39.63,39.63,0,0,1,5.48-11C9.93,4.1,13.85,1,17.89,1M12.34,4.4A9.68,9.68,0,0,0,8.53,8.18,29,29,0,0,1,12.34,4.4M8,30.3a3.3,3.3,0,0,0,1.51-.44l.19-.12c0-.07,0-.15-.07-.19a12.3,12.3,0,0,1-.7-4.09,2.67,2.67,0,0,1,1-2.27,1.44,1.44,0,0,1,.9-.32H11c.08,0,.2,0,.31,0a.82.82,0,0,1,.25-.06l.1,0,.66.12a2.49,2.49,0,0,1,1.35.61,2,2,0,0,1,.61,1.08c0,.31,0,.66,0,1a2.9,2.9,0,0,0,0,.54c.08-.08.16-.12.19-.16a32.09,32.09,0,0,0,6.1-12.3c.61-2.24,2.5-8.63-1.26-8.63a4.34,4.34,0,0,0-.9.1c-3.2.7-5.94,3.82-7.72,6.4a28.07,28.07,0,0,0-3.85,8.3C6.39,21.68,4.66,30.3,8,30.3M11.34,7A10.57,10.57,0,0,0,9.72,9a10.27,10.27,0,0,0,1.62-2m2.74.27a10.7,10.7,0,0,0-3.16,3.4l0,0a21.27,21.27,0,0,1,3.12-3.44m-1.43.35a11.78,11.78,0,0,0-2.43,3.09c.85-1.05,1.62-2.05,2.43-3.09m8.72,13.12L18.75,25.5a24.93,24.93,0,0,0,2.62-4.74m-3.62,7a.22.22,0,0,0,.19-.12,6.66,6.66,0,0,0,.42-.62,14.07,14.07,0,0,0,1.58-2.43c.43-.77.81-1.54,1.2-2.31.23-.42.42-.85.62-1.27a0,0,0,0,0,0,0c-.62,1.16-1.24,2.31-1.85,3.51a30,30,0,0,1-2.12,3.28M19,21.1c-1.2,1.74-2.2,3.59-3.43,5.29h0a15.47,15.47,0,0,0,1.19-1.51c.46-.69.89-1.42,1.31-2.12l.7-1.27c.07-.12.11-.27.19-.39m.93.35c-.58,1-1.16,2-1.74,3.05a13.28,13.28,0,0,0,1.74-3.05M11.8,24.73a1.93,1.93,0,0,0,.08-.46.54.54,0,0,0,0-.2,1.1,1.1,0,0,0,0,.66m-1.5.58a1.2,1.2,0,0,0,.31-1.08c-.23.31-.5.61-.31,1.08M17.89,0h0c-4.57,0-8.8,3.55-11,6.59a40.87,40.87,0,0,0-5.62,11.3c-1,3-1.95,6.91-.53,10.7a9.09,9.09,0,0,0,6.73,5.8,8,8,0,0,0,1.73.17,9.45,9.45,0,0,0,2.3-.34c.1.12.21.23.32.34s.2.21.29.32l0,0,0,0a8.48,8.48,0,0,0,3.32,2.25,4.48,4.48,0,0,0,1.54.32,2.75,2.75,0,0,0,.57-.05l.34-.07.16,0h.1a1.49,1.49,0,0,0,1.12-.44h.13a1.28,1.28,0,0,0,1-.48,1.29,1.29,0,0,0,.5-.36,1.21,1.21,0,0,0,.27-.84,1.25,1.25,0,0,0,.08-1.14,1.28,1.28,0,0,0-.78-.67,1.5,1.5,0,0,0-.8-.43,2.64,2.64,0,0,1-.67-.34,3.79,3.79,0,0,1-.37-.31L18.29,32l-.09-.09a.9.9,0,0,1-.14-.14,9.49,9.49,0,0,0-.61-.81l-.27-.33-.13-.19c.53-.59,1.34-1.55,2.66-3.14l0,0,0-.05c1.08-1.62,2-3.31,2.79-4.75,1.69-3.2,4.29-9.53,2.83-16-.69-3-2.3-5.16-4.53-6a8.49,8.49,0,0,0-3-.53ZM8,29.3a.5.5,0,0,1-.46-.23c-1-1.38-.33-6.55.35-8.93a27.09,27.09,0,0,1,3.72-8c1.64-2.39,4.2-5.36,7.1-6a3.57,3.57,0,0,1,.69-.08,1,1,0,0,1,.89.35c1,1.3-.16,5.43-.53,6.79l-.07.22A31.83,31.83,0,0,1,15,23.72a3,3,0,0,0-.66-.89l0,0,0,0a3.52,3.52,0,0,0-1.84-.83l-.57-.1a1.65,1.65,0,0,0-.32,0,1.76,1.76,0,0,0-.44.07l-.15,0h-.11a2.42,2.42,0,0,0-1.5.52,3.68,3.68,0,0,0-1.44,3.07,13.41,13.41,0,0,0,.54,3.76A1.46,1.46,0,0,1,8,29.3Z"/><path class="cls-1" d="M40,34a4.89,4.89,0,0,1-2.65-.7,5.91,5.91,0,0,1-1.29-1.39L36,31.82a8,8,0,0,1-1.57,1,4.61,4.61,0,0,1-1.21.56l-.11,0a3.1,3.1,0,0,1-1.18.19,5.39,5.39,0,0,1-3-.83,4.21,4.21,0,0,1-2-3.92v-.19a12.63,12.63,0,0,1,.72-3.07c.93-2.51,2.53-6,3.73-8.41l.92-2a2.42,2.42,0,0,1,1.59-1.41,1.16,1.16,0,0,1,.42-.08,1.81,1.81,0,0,1,1.11.46l.2.17a.7.7,0,0,1,.23.11l.11.07a1.61,1.61,0,0,1,.39.47.69.69,0,0,1,.3.18l.27.36A3.75,3.75,0,0,1,37.72,17h0a1.28,1.28,0,0,1-.09,1.27c-.21.45-.52,1.07-.85,1.72-.47.95-1,2-1.3,2.66-.43.95-.83,1.91-1.22,2.89l-.51,1.22c-.3.79-.6,1.59-.87,2.4a9.83,9.83,0,0,0-.29,1.36,6.14,6.14,0,0,0,2.09-1,5.22,5.22,0,0,0,.77-.62l.07-.08a15.31,15.31,0,0,1,1.18-3.14l3.59-7.15c.32-.63.7-1.23,1.07-1.81q.21-.32.42-.66l.29-.55a3,3,0,0,1,2.34-1.45h.16a1.52,1.52,0,0,1,.92.34l.16.14a1,1,0,0,1,.7.53h0a.85.85,0,0,1,.25.17,3.94,3.94,0,0,1,1.07,2.45,1.63,1.63,0,0,1-.27.9c-.18.33-.39.67-.61,1l-.39.64c-.77,1.25-2,3.59-2.68,5s-1.42,3-2.12,4.47c-.1.23-.2.49-.3.77a7.37,7.37,0,0,0,1.93-.86,15.45,15.45,0,0,0,2.92-2.29l.22-.2c1.54-1.42,2.85-2.71,4-3.95a1.58,1.58,0,0,1,.31-.26.86.86,0,0,1,.28-.15l.11-.06h.13l.16,0h0l0,0a.6.6,0,0,1,.15.09l.14.1a2.17,2.17,0,0,1,.3.21.86.86,0,0,1,.33.53.91.91,0,0,1-.12.75l-.34.45a13.21,13.21,0,0,1-1,1.32c-.59.69-1.23,1.38-1.87,2.07L47.7,29.73a20,20,0,0,1-4.33,3.42A6.77,6.77,0,0,1,40,34Z"/><path d="M34.35,14.23a1.3,1.3,0,0,1,.79.35c-.11.08-.23.2-.31.27a1.67,1.67,0,0,0-.15.43.78.78,0,0,0,.54-.23s0-.08.08-.12.14-.1.18-.1.1,0,.2.1a1.11,1.11,0,0,1,.39.62.29.29,0,0,1,.15-.06.17.17,0,0,1,.12.06,4.28,4.28,0,0,1,.89,1.58v.08c.23.31.11.58,0,.88-.54,1.12-1.62,3.24-2.16,4.4-.62,1.35-1.16,2.74-1.74,4.13-.31.81-.62,1.62-.89,2.43a11.63,11.63,0,0,0-.34,1.7v.42h.27A7.44,7.44,0,0,0,35,29.94a4.94,4.94,0,0,0,.81-.66A.66.66,0,0,0,36,29a15.18,15.18,0,0,1,1.16-3.09l3.59-7.13c.42-.85,1-1.62,1.46-2.43l.31-.58a2.54,2.54,0,0,1,2-1.2h.09a1,1,0,0,1,.6.23c-.07.08-.15.24-.27.31a.37.37,0,0,0,.16.05.39.39,0,0,0,.23-.09.43.43,0,0,1,.19,0,.51.51,0,0,1,.43.28c0,.07,0,.15.07.27a.28.28,0,0,1,.12,0,.23.23,0,0,1,.15.07,3.47,3.47,0,0,1,.93,2.13,1.19,1.19,0,0,1-.19.61c-.31.54-.66,1.08-1,1.66-.81,1.31-2,3.71-2.7,5.09s-1.42,3-2.12,4.48a11.16,11.16,0,0,0-.58,1.66.23.23,0,0,0,.11,0,1,1,0,0,0,.32-.1,8.44,8.44,0,0,0,2.5-1,17.06,17.06,0,0,0,3.21-2.55c1.38-1.27,2.73-2.58,4-4a.8.8,0,0,1,.23-.19.64.64,0,0,1,.23-.12s0,0,.08.08a.76.76,0,0,0-.16.31,3.13,3.13,0,0,0,.31-.23,1.17,1.17,0,0,1,.27.19.47.47,0,0,1,.12.58c-.47.61-.85,1.19-1.35,1.73-1,1.16-2.09,2.28-3.13,3.44a19.23,19.23,0,0,1-4.2,3.31,6.26,6.26,0,0,1-3.1.82,4.41,4.41,0,0,1-2.38-.62,6.15,6.15,0,0,1-1.27-1.43c-.08-.08-.16-.23-.27-.35a1.75,1.75,0,0,0-.27.19,8.69,8.69,0,0,1-1.62,1,5.22,5.22,0,0,1-1.28.57,2.58,2.58,0,0,1-1,.16,5,5,0,0,1-2.66-.73,3.8,3.8,0,0,1-1.81-3.71,11.83,11.83,0,0,1,.69-2.89c.93-2.51,2.51-5.94,3.7-8.37l.93-2a2,2,0,0,1,1.31-1.16,1,1,0,0,1,.25,0m0,1.51c.23,0,.23,0,.19-.31l-.19.31m9.53.46.54-.3c.19-.08.23-.16.12-.43-.2.27-.58.35-.66.73m-9.84,1.62c-.19.43-2.16,4.71-2.31,5.1.19-.12,2.31-4.29,2.31-5.1m.27.54c-.19.43-2.16,4.71-2.31,5.1a52.66,52.66,0,0,0,2.31-5.1m7.29,3.86c-.19.43-2.16,4.71-2.31,5.09.19-.11,2.31-4.28,2.31-5.09m6.18,4.94c.07-.12.23-.23.34-.39l0,0c-.11.16-.27.27-.34.39l0,0m-.89.89a1.37,1.37,0,0,1,.27-.27l0,0a1.37,1.37,0,0,0-.27.27l0,0m-.81.69.35-.27a0,0,0,0,1,0,0l-.35.27,0,0m-.27.23h0l-.15.16a0,0,0,0,0,0,0,.85.85,0,0,1,.16-.19M34.35,13.23a1.73,1.73,0,0,0-.6.11A3,3,0,0,0,31.87,15L31,17c-1.19,2.42-2.8,5.92-3.74,8.45a13.75,13.75,0,0,0-.75,3.13v.29a4.71,4.71,0,0,0,2.21,4.33,6,6,0,0,0,3.26.93,3.68,3.68,0,0,0,1.37-.22l.09,0a6.46,6.46,0,0,0,1.33-.61,11,11,0,0,0,1.17-.7,5.54,5.54,0,0,0,1.18,1.2,5.43,5.43,0,0,0,3,.8,7.35,7.35,0,0,0,3.6-1A20.19,20.19,0,0,0,48,30.1l0,0,0,0,1.24-1.35c.63-.68,1.28-1.38,1.89-2.09a14.83,14.83,0,0,0,1.06-1.34l.34-.45a1.43,1.43,0,0,0,.21-1.17,1.38,1.38,0,0,0-.51-.8,1.23,1.23,0,0,0-.27-.19L52,22.62l-.11-.07a1.28,1.28,0,0,0-.21-.14l-.37-.24-.13.13H51l-.17.09a1.41,1.41,0,0,0-.4.21,2,2,0,0,0-.36.3c-1.15,1.26-2.44,2.54-4,4l-.22.2A14.8,14.8,0,0,1,43,29.25l0,0,0,0a5,5,0,0,1-.76.41c.66-1.41,1.3-2.77,2-4.15s1.9-3.78,2.65-5l.4-.65c.22-.35.43-.7.62-1a2.06,2.06,0,0,0,.33-1.11A4.44,4.44,0,0,0,47,15l0,0,0,0a1.41,1.41,0,0,0-.24-.2,1.52,1.52,0,0,0-.85-.62L45.8,14a2,2,0,0,0-1.23-.45,1.14,1.14,0,0,0-.26,0,3.49,3.49,0,0,0-2.66,1.66v.05l-.29.55c-.14.21-.27.42-.4.63a18.42,18.42,0,0,0-1.1,1.85l-3.58,7.14a15.71,15.71,0,0,0-1.2,3.13,4.2,4.2,0,0,1-.6.48l-.05,0,0,0a4.59,4.59,0,0,1-1.12.65c0-.17.08-.33.13-.49.25-.75.56-1.56.86-2.35.16-.38.32-.79.49-1.19.41-1,.79-1.94,1.22-2.87.31-.67.81-1.68,1.29-2.65.33-.65.64-1.28.86-1.73a1.82,1.82,0,0,0,.11-1.65,4.32,4.32,0,0,0-.84-1.63l-.2-.27,0-.08-.06-.06a1.64,1.64,0,0,0-.26-.2l-.08-.06a2,2,0,0,0-.4-.43l-.05,0-.06,0-.05,0a1.84,1.84,0,0,0-.25-.13l-.13-.11a2.29,2.29,0,0,0-1.42-.57Z"/><path class="cls-1" d="M62.68,34.2a4.49,4.49,0,0,1-4-2.09l-.53.39c-.73.54-1.19.87-1.34,1a5.77,5.77,0,0,1-2.82.69,7.47,7.47,0,0,1-5.15-2,6.7,6.7,0,0,1-1.67-2.69c-.9-3.05.79-6.15,1.57-7.34a17.6,17.6,0,0,1,4.72-5,13.88,13.88,0,0,1,6.34-2.71l.48,0a7.38,7.38,0,0,1,3.52,1l.27.15.35-.62A2.36,2.36,0,0,1,66,13.68a1.46,1.46,0,0,1,.49-.06h.08l.07,0a2.1,2.1,0,0,1,.46.18.77.77,0,0,1,.3.24l0,0,.09-.07.33.33.14.06a.93.93,0,0,1,.44.51l0,.07a1.36,1.36,0,0,1,.63.63,8.18,8.18,0,0,1,.44.78,7.9,7.9,0,0,1,.3.9,1,1,0,0,1,0,.59l0,.08-.08.16-.34.54c-1.51,2.73-2.86,5.69-3.86,8-.38.84-.73,1.73-1.07,2.6l-.1.23c-.13.32-.48,1.14-.26,1.34a.23.23,0,0,0,.14,0,6.7,6.7,0,0,0,2.46-1.31l.16-.12c.2-.16.43-.36.66-.57a5.45,5.45,0,0,1,1.88-1.31l.07,0h.42l.11,0,.12.05a1.12,1.12,0,0,1,.47.28.91.91,0,0,1,.08,1.24,4,4,0,0,1-.58.58l-.84.82a14.29,14.29,0,0,1-4,3.1A6.06,6.06,0,0,1,62.68,34.2Zm-1-14.43a11.09,11.09,0,0,0-4.12,1.81,14.38,14.38,0,0,0-3.8,4.19,7.45,7.45,0,0,0-1.13,3.89c0,.79.61,1.19,1.65,1.19a4.47,4.47,0,0,0,1.57-.3c.8-.28,2.12-1.16,2.28-1.78a13.29,13.29,0,0,1,.48-1.62c.66-1.76,1.41-3.48,2.22-5.15l1.1-2.27Z"/><path d="M66.47,14.12a2,2,0,0,1,.38.15c.12,0,.16.16.31.27a3.09,3.09,0,0,0-.77,1q0,.09.09.09s.08-.05.1-.09a8.94,8.94,0,0,1,.89-.85.59.59,0,0,0,.27.15c.23.12.19.47.46.58s.35.31.47.5a7,7,0,0,1,.38.7,6.41,6.41,0,0,1,.27.81c0,.11,0,.27-.08.42l-.34.54c-1.43,2.59-2.7,5.33-3.9,8-.39.84-.73,1.73-1.08,2.62-.19.5-.77,1.62-.23,2.12a.66.66,0,0,0,.48.17c.93,0,2.47-1.2,2.91-1.52A9.7,9.7,0,0,1,69.48,28h.23a1.53,1.53,0,0,1,.46.23s.27.35.08.54a4.59,4.59,0,0,1-.54.54c-1.47,1.39-2.86,3-4.71,3.86a5.58,5.58,0,0,1-2.32.52,3.85,3.85,0,0,1-3.77-2.34h0s-2,1.51-2.32,1.66a5.1,5.1,0,0,1-2.57.63,7,7,0,0,1-4.8-1.9,6.26,6.26,0,0,1-1.54-2.47c-.69-2.35.23-5,1.51-6.94a17,17,0,0,1,4.59-4.86,13.25,13.25,0,0,1,6.09-2.63l.44,0a6.79,6.79,0,0,1,3.26.91l.7.39c.23-.35.42-.7.61-1a1.9,1.9,0,0,1,1.24-.92,1,1,0,0,1,.35,0m2.47,3.55,0,0v0h0v.08m-13.89.54c-.08,0-.19,0-.27.08-.62.42-1.24.85-1.81,1.31a6,6,0,0,0-.7.73l-.11.16c.73-.58,1.46-1.16,2.19-1.66a5,5,0,0,0,.54-.39.8.8,0,0,0,.16-.23.14.14,0,0,1,.11,0l0,0-.08.08m-.79,13.14A5.14,5.14,0,0,0,56,31c.77-.27,2.36-1.24,2.59-2.13a11.76,11.76,0,0,1,.46-1.58q1-2.6,2.2-5.09l1.16-2.39a1,1,0,0,0,.19-.69h-.39a6.31,6.31,0,0,1-.73.15,11.35,11.35,0,0,0-4.24,1.89,15,15,0,0,0-3.94,4.32,8.08,8.08,0,0,0-1.19,4.2c.07,1.23,1.07,1.65,2.14,1.65m-.21-10.71-.39.39c.31-.12.27-.12.39-.39m.88,1c.08,0,.12,0,.16,0s.11-.11.19-.19,0,0-.08-.08l-.27.31m1.12-.15a2.76,2.76,0,0,0-.31.23,2.37,2.37,0,0,0-.65.62,1.37,1.37,0,0,0,.65-.54v-.08c.08,0,.16,0,.2,0s0-.08.11-.19m10.58-8.37h-.16a2,2,0,0,0-.67.09,2.85,2.85,0,0,0-1.8,1.4l-.09.17a7.74,7.74,0,0,0-3.6-.95l-.54,0a14.3,14.3,0,0,0-6.57,2.8,18.1,18.1,0,0,0-4.85,5.13c-1.71,2.65-2.31,5.48-1.63,7.77a7.2,7.2,0,0,0,1.8,2.9A8,8,0,0,0,54,34.65a6.21,6.21,0,0,0,3.07-.76c.16-.09.49-.33,1.41-1l.09-.07a5.09,5.09,0,0,0,4.09,1.88,6.49,6.49,0,0,0,2.75-.62,14.63,14.63,0,0,0,4.1-3.2l.84-.81a4.24,4.24,0,0,0,.63-.64,1.39,1.39,0,0,0,0-1.81l0,0,0,0a1.79,1.79,0,0,0-.65-.39l-.08,0L70,27h-.62l-.14,0a5.94,5.94,0,0,0-2.08,1.42c-.21.2-.43.39-.63.56l-.14.1a9,9,0,0,1-1.81,1.11c.07-.21.17-.46.22-.58s.08-.18.1-.25c.34-.86.69-1.75,1.06-2.57,1-2.26,2.34-5.19,3.85-7.93l.33-.51.08-.14,0-.16,0-.06a1.42,1.42,0,0,0,0-.92,7.77,7.77,0,0,0-.3-.89v-.05a8.57,8.57,0,0,0-.45-.8h0a2,2,0,0,0-.67-.75,1.43,1.43,0,0,0-.63-.66l-.07,0h0l-.59-.59-.12.1-.09,0a2.56,2.56,0,0,0-.47-.19l-.06,0-.15-.05ZM54.26,30.35c-1.1,0-1.13-.48-1.14-.71A6.84,6.84,0,0,1,54.18,26a14.05,14.05,0,0,1,3.65-4A10.32,10.32,0,0,1,61,20.45l-.65,1.34c-.82,1.67-1.57,3.41-2.24,5.17a13.5,13.5,0,0,0-.5,1.72,4.42,4.42,0,0,1-1.94,1.39,4,4,0,0,1-1.42.28Z"/><path class="cls-1" d="M73.59,33.83a6.75,6.75,0,0,1-2.11-.33c-2.66-.93-3.62-3.34-2.64-6.64a68.64,68.64,0,0,1,2.92-7.77c.49-1.18,1-2.32,1.55-3.47l.38-.82c.78-1.75,1.45-3.17,2.09-4.45a39.82,39.82,0,0,1,3-5.08l.27-.39c.77-1.16,1.73-2.62,3.25-3a3,3,0,0,1,.72-.09,5.17,5.17,0,0,1,3.88,2.41c1.44,2.08-.5,6.05-1.44,8l-.07.14a32.89,32.89,0,0,1-7.25,9.44c-.18.16-.36.31-.53.44l-.37.31a.77.77,0,0,0-.27.35l-.39,1c-.42,1.08-.85,2.17-1.23,3.25a16.22,16.22,0,0,0-.87,3v0l.19,0c3.63-.9,6.21-3.17,8.46-5.5a14.75,14.75,0,0,1,2.63-2.27l.54-.34.14.41a.65.65,0,0,1,.57.34c.33.62-.47,1.85-.56,2A39,39,0,0,1,83.69,28a26.83,26.83,0,0,1-3.64,3.39C78.49,32.44,76.13,33.83,73.59,33.83ZM83.52,9.38a53,53,0,0,0-3.61,6.84,23.62,23.62,0,0,0,2.24-3.41A18.88,18.88,0,0,0,83.52,9.38Z"/><path d="M83.06,2.25a4.67,4.67,0,0,1,3.47,2.19c1.31,1.89-.7,5.86-1.55,7.6a32.23,32.23,0,0,1-7.13,9.29c-.31.27-.62.51-.89.74a1.17,1.17,0,0,0-.42.58C76,24,75.42,25.46,74.92,26.89A16.37,16.37,0,0,0,74,29.94l-.12.73a5.59,5.59,0,0,0,.93-.16c3.55-.88,6.17-3,8.68-5.63a14.09,14.09,0,0,1,2.54-2.2c0,.12,0,.2,0,.27a.92.92,0,0,1,.36-.12c.48,0-.2,1.25-.4,1.55a37.54,37.54,0,0,1-2.74,3.28A27.7,27.7,0,0,1,79.78,31a11.68,11.68,0,0,1-6.19,2.36,6,6,0,0,1-2-.32c-2.78-1-3-3.55-2.32-6a64.26,64.26,0,0,1,2.9-7.71c.61-1.47,1.27-2.85,1.92-4.28s1.35-3,2.09-4.44a39.58,39.58,0,0,1,3-5c.81-1.2,1.73-2.82,3.24-3.24a2.25,2.25,0,0,1,.58-.07M82.4,4c-.27,0-.35,0-.5.16a3.76,3.76,0,0,0-.89.89l-1,1.38-.12.27A1.29,1.29,0,0,1,79.7,7s0,0,.08,0,.11-.19.15-.31A.08.08,0,0,0,80,6.64c.46-.54.88-1.12,1.39-1.66a6.92,6.92,0,0,1,.73-.7c.11-.07.23-.11.27-.27m.42,1.43a5.63,5.63,0,0,0-1.58,2.08l1.58-2.08m-1,3.74s0-.11.08-.15a.15.15,0,0,1,0-.12c0-.07.11-.11.15-.15.42-.62.89-1.24,1.35-1.85L84,6.1s0,0-.08,0a4.5,4.5,0,0,0-.35.38A17,17,0,0,0,81.94,8.8v.07a1.26,1.26,0,0,1-.2.27s0,0,.08,0m2.7-2.74a9.57,9.57,0,0,0-2.2,2.86l.08.08.11-.24L83.9,7.29c.16-.23.35-.42.5-.65a.43.43,0,0,0,.12-.2m0,.78a1.09,1.09,0,0,1-.19.19,53.42,53.42,0,0,0-5.75,10.65,11.66,11.66,0,0,0-.5,1.08.68.68,0,0,0,.27-.2c.46-.54.93-1.08,1.39-1.66A25,25,0,0,0,82.59,13,18.61,18.61,0,0,0,84.44,7.6a1.36,1.36,0,0,1,0-.38m-1.42-6h0a3.31,3.31,0,0,0-.83.1c-1.73.48-2.74,2-3.56,3.26L78.41,5a39,39,0,0,0-3.08,5.13c-.64,1.28-1.31,2.71-2.1,4.47l-.37.81c-.52,1.13-1.06,2.29-1.57,3.49a66.87,66.87,0,0,0-2.93,7.83c-1,3.52.06,6.23,3,7.24a7.36,7.36,0,0,0,2.28.37c2.67,0,5.13-1.45,6.74-2.53a27.83,27.83,0,0,0,3.74-3.48,39.51,39.51,0,0,0,2.83-3.39c.32-.49,1-1.69.58-2.5a1.13,1.13,0,0,0-.62-.54l-.25-.75-1.09.69a15.14,15.14,0,0,0-2.73,2.35,18,18,0,0,1-7.62,5.2,17.38,17.38,0,0,1,.68-2.14c.39-1.11.82-2.2,1.23-3.26l.39-1a.29.29,0,0,1,.11-.16l.39-.32.54-.44a33.31,33.31,0,0,0,7.37-9.61l.07-.14c1-2.15,3-6.15,1.4-8.47a5.6,5.6,0,0,0-4.29-2.62Z"/><path class="cls-1" d="M106.06,33.83a7.22,7.22,0,0,1-6.74-9.51c1.12-3.81,4.51-8.5,8.83-10.09a7.7,7.7,0,0,1,2.61-.45,6.19,6.19,0,0,1,6.3,4.66,11.29,11.29,0,0,1-.75,6.2,45.24,45.24,0,0,0,3.39-3.7l1.63-1.86c.58-.62.72-.71.91-.72l.29,0a.79.79,0,0,1,.75.41c.27.55-.14,1.27-1,2.41l-.14.19c-1.09,1.48-2.68,3.38-2.69,3.4s-1.8,1.87-2.7,2.58c-.32.24-.61.52-.93.81a14,14,0,0,1-1.75,1.45c-1.73,2-4.47,4.26-7.76,4.26Zm6.49-14.72a2.94,2.94,0,0,0-.81.12c-1.83.53-3.26,2.07-4.53,3.65s-2.76,3.73-2.86,5.69a1.72,1.72,0,0,0,1.22,1.74,5.31,5.31,0,0,0,1.26.2h0l.43,0c2.22-.28,4.2-2.35,5.89-6.15a10.65,10.65,0,0,0,1-3.61A1.49,1.49,0,0,0,112.55,19.11Z"/><path d="M110.76,14.28a5.69,5.69,0,0,1,5.82,4.28c.57,2.54-.47,5.24-1.35,7.6,0,0,0,.07,0,.15a0,0,0,0,1,0,0c.38-.35.77-.7,1.11-1a47.46,47.46,0,0,0,3.75-4l1.62-1.85a4.3,4.3,0,0,1,.57-.55h0a.8.8,0,0,1,.25,0c1,0-.57,1.9-.79,2.22-1.08,1.47-2.66,3.36-2.66,3.36s-1.73,1.81-2.62,2.51-1.5,1.46-2.7,2.27c-2,2.21-4.56,4.14-7.43,4.14h-.25a6.71,6.71,0,0,1-6.28-8.87c1.15-3.94,4.55-8.29,8.52-9.76a7.32,7.32,0,0,1,2.44-.42m-3,2.46a12.53,12.53,0,0,0-2.24,1.39,6,6,0,0,0-1.81,2.05,24.22,24.22,0,0,1,4-3.44m-1,14.27.49,0c3.08-.39,5.09-3.74,6.29-6.44a11.2,11.2,0,0,0,1.08-3.82,2,2,0,0,0-2.14-2.11,3.52,3.52,0,0,0-1,.14c-2,.58-3.51,2.24-4.78,3.82s-2.86,3.82-3,6a2.18,2.18,0,0,0,1.58,2.23,5.09,5.09,0,0,0,1.4.23m-.52-11.49A3.38,3.38,0,0,0,105,21l1.35-1.47m2.55.43a7.58,7.58,0,0,0-2.58,2.39A21,21,0,0,1,108.86,20m-1.43.3a6,6,0,0,0-1.77,1.89s0,0,.08,0c.54-.65,1.11-1.31,1.69-1.93m4.75,8.53h0s0,.08-.08.11h0l.08-.11m-.5.58.11-.12,0,0-.11.12s0,0,0,0m-.92-16.08h0a8.17,8.17,0,0,0-2.78.48c-4.48,1.65-8,6.49-9.14,10.42a8,8,0,0,0,1,6.92A7.89,7.89,0,0,0,106,34.33h.3c3.45,0,6.29-2.36,8.1-4.38a16,16,0,0,0,1.75-1.46,11.82,11.82,0,0,1,.89-.78c.94-.74,2.66-2.53,2.74-2.61l0,0,0,0c.07-.08,1.61-1.93,2.7-3.4,0-.08.09-.13.15-.21.81-1.1,1.45-2.08,1-2.93a1.28,1.28,0,0,0-1.19-.68l-.35,0c-.42,0-.7.32-1.21.85l-1.64,1.88c-.69.83-1.33,1.57-1.94,2.23a9.73,9.73,0,0,0,.16-4.49,6.68,6.68,0,0,0-6.79-5.06ZM106.83,30a4.34,4.34,0,0,1-1.15-.19,1.19,1.19,0,0,1-.83-1.24c.09-1.8,1.44-3.74,2.75-5.39s2.59-3,4.28-3.48a2.32,2.32,0,0,1,.67-.1,1,1,0,0,1,1.14,1.13,10.71,10.71,0,0,1-1,3.4c-1.61,3.62-3.46,5.59-5.5,5.85l-.36,0Z"/><path class="cls-1" d="M133.26,34.53a4.85,4.85,0,0,1-1.92-.39h0l-.21-.08-.1,0a1.17,1.17,0,0,1-.26,0,1,1,0,0,1-.58-.2,2.61,2.61,0,0,1-.74-.5A2,2,0,0,1,129,33a5.39,5.39,0,0,1-1.62-1.68l-.13-.21a7.6,7.6,0,0,1-.52-1,6.51,6.51,0,0,1,2.58-7.35,7.18,7.18,0,0,1,4-1.24,8.94,8.94,0,0,1,2,.24,2.6,2.6,0,0,0-1-1.05,7.23,7.23,0,0,1-1.09-1,3.91,3.91,0,0,1-.21-4.8,5.17,5.17,0,0,1,4.22-1.74,6.88,6.88,0,0,1,4.62,1.61A4.56,4.56,0,0,1,143,18.27a1.5,1.5,0,0,1-1,1.18,1.55,1.55,0,0,1-.54.1A1.87,1.87,0,0,1,140,18.43a2.92,2.92,0,0,0-.42-.55,2.41,2.41,0,0,0-1.11-.61,2.22,2.22,0,0,0-.51-.06,1.78,1.78,0,0,0-.41,0h.77l-.75.78v.33h-.21c.25.23.51.43.79.65a10.57,10.57,0,0,1,.88.72,5.89,5.89,0,0,1,1.23,1.67l.18.31a17.07,17.07,0,0,0,4-.77,5.5,5.5,0,0,0,1.83-1.17.83.83,0,0,1,.84-.36H148l-.14.23L148,20c.08.13.17.26.26.43l0,.11v.16l0,0,0,.25v.14l-.08.12a5.57,5.57,0,0,1-1.93,1.82,10.08,10.08,0,0,1-3.22,1.15c-.39.1-.82.17-1.24.24l-.6.1v.07a4.53,4.53,0,0,1,.08.75,6.78,6.78,0,0,1-.33,2.69,9,9,0,0,1-1.23,2.51,10.1,10.1,0,0,1-3,2.87,6.38,6.38,0,0,1-3.3,1.07Zm2-9.16a6.86,6.86,0,0,0-2.71,1.83l-.4.37c-.43.43-.81,1.05-.56,1.36,0,0,.07.09.26.09a4.11,4.11,0,0,0,2.07-1.08A5,5,0,0,0,135.22,25.37Z"/><path d="M137.26,13.7a6.4,6.4,0,0,1,4.27,1.46c.7.66,1.7,3.32.31,3.82a1,1,0,0,1-.37.07c-.78,0-1.06-1-1.59-1.53a2.94,2.94,0,0,0-1.35-.74,3.29,3.29,0,0,0-.63-.07c-1.16,0-2.25.7-1.11,1.85.58.58,1.27,1,1.85,1.54A6.6,6.6,0,0,1,140,22a.3.3,0,0,0,.31.19,17.7,17.7,0,0,0,4.28-.81,5.84,5.84,0,0,0,2-1.27c.19-.23.19-.23.5-.23a5.42,5.42,0,0,0-.27.54l0,0a1,1,0,0,1,.31-.31.28.28,0,0,1,.19-.08s0,.15.08.23a.27.27,0,0,0,.15,0,2.36,2.36,0,0,1,.23.39,1.11,1.11,0,0,1-.07.23h.07s0,0,0,.08a5.29,5.29,0,0,1-1.77,1.66A9.84,9.84,0,0,1,143,23.73c-.62.15-1.24.23-1.85.34a.3.3,0,0,0-.2,0c-.19,0-.23.08-.23.31a7.19,7.19,0,0,1,.12,1,6.4,6.4,0,0,1-.31,2.55,8.31,8.31,0,0,1-1.16,2.35A9.51,9.51,0,0,1,136.56,33a6,6,0,0,1-3.05,1h-.25a4.44,4.44,0,0,1-1.72-.35c-.15,0-.27-.12-.42-.16l-.11,0a.11.11,0,0,0-.08,0,.34.34,0,0,1-.16,0,.64.64,0,0,1-.31-.11,3,3,0,0,1-.73-.51,1.4,1.4,0,0,1-.38-.3,5.11,5.11,0,0,1-1.55-1.59,7.64,7.64,0,0,1-.61-1.11,6,6,0,0,1,2.39-6.75A6.53,6.53,0,0,1,133.31,22a13.92,13.92,0,0,1,2.67.38c-.23-1.77-1.31-1.81-2.35-3a3.43,3.43,0,0,1-.2-4.17,4.73,4.73,0,0,1,3.83-1.54m-5.45,15.82a4.5,4.5,0,0,0,2.4-1.2,5.61,5.61,0,0,0,1.58-3.55l-.15,0a.06.06,0,0,0,0,0c-1.65.31-2.5,1.23-3.81,2.43-.62.61-1.08,1.46-.62,2a.82.82,0,0,0,.65.28m-3.51-2.9c.27-.27.51-.54.78-.77l0-.08c-.54.39-.66.5-.74.85M131,27.74l.19-.23,0,0-.19.23a0,0,0,0,0,0,0m4.89-.12c-.42.54-.88,1-1.31,1.54a2.27,2.27,0,0,0,1.31-1.54m.85,1.74.35-.47s0,0,0-.07a3.85,3.85,0,0,0-.38.46l.07.08m1.7.11c-.31.35-.62.7-.93,1.08a2.25,2.25,0,0,0,.93-1.08m-.93,2.2a4.31,4.31,0,0,0,1.39-1.62s0,0-.07-.08c-.43.58-.89,1.16-1.32,1.7m-.38-13.92s-.08.07-.08.11h0l.08-.11h0m.16-5.05a5.62,5.62,0,0,0-4.62,1.94,4.37,4.37,0,0,0,.24,5.43,7.73,7.73,0,0,0,1.08,1c-.21,0-.43,0-.65,0A7.73,7.73,0,0,0,129,22.35a7,7,0,0,0-2.79,7.89v0l0,0a6.54,6.54,0,0,0,.56,1.05l.12.21a6.11,6.11,0,0,0,1.76,1.84,2.63,2.63,0,0,0,.46.36,4,4,0,0,0,.83.56,1.47,1.47,0,0,0,.78.23l.21,0,.23.08a5.32,5.32,0,0,0,2,.41h.28a6.83,6.83,0,0,0,3.53-1.14,10.34,10.34,0,0,0,3.15-3,9.16,9.16,0,0,0,1.3-2.64,7.36,7.36,0,0,0,.36-2.91c0-.12,0-.24,0-.35l.11,0c.41-.07.84-.14,1.28-.25a10.42,10.42,0,0,0,3.33-1.18,6.35,6.35,0,0,0,2.13-2l.15-.24v-.71l0,0v-.62h-.28l-.12-.17,0,0,.47-.78h-1.77a1.36,1.36,0,0,0-1.23.54,4.89,4.89,0,0,1-1.62,1,16.4,16.4,0,0,1-3.58.72v0a6.31,6.31,0,0,0-1.35-1.81c-.27-.26-.59-.5-.89-.74L138,18.3v-.05l.44-.45a1.94,1.94,0,0,1,.76.46,3,3,0,0,1,.32.44,2.34,2.34,0,0,0,1.94,1.35,2.06,2.06,0,0,0,2-1.67,5,5,0,0,0-1.26-3.94,7.35,7.35,0,0,0-5-1.74Zm-5.21,15.77a2.53,2.53,0,0,1,.43-.57l.37-.33a12.25,12.25,0,0,1,1.55-1.29,3.38,3.38,0,0,1-.85,1.28,4.67,4.67,0,0,1-1.5.91Z"/><path class="cls-1" d="M148.55,34.28a8.42,8.42,0,0,1-2.91-.52,5.52,5.52,0,0,1-3.32-3.19,8.85,8.85,0,0,1,.7-7,26.29,26.29,0,0,1,4.87-6.53c1.22-1.26,3.69-3.39,6.44-3.39a5.08,5.08,0,0,1,3,1,3.83,3.83,0,0,1,1.59,2.43c.6,3.38-1.89,6.66-4.54,8a7.93,7.93,0,0,1-3.51.76,7.49,7.49,0,0,1-1.9-.23A12,12,0,0,0,147.62,29c-.23,1.11-.12,1.95.28,2.27a.82.82,0,0,0,.49.13,7.35,7.35,0,0,0,2.83-1.14l.41-.23a27.17,27.17,0,0,0,5.57-5c.68-.76,1.38-1.55,2.31-2.43l1-.83a.93.93,0,0,1,.55-.23.67.67,0,0,1,.44.18.57.57,0,0,1,.25.06,1.12,1.12,0,0,1,.61.76,1,1,0,0,1-.25.85,8.71,8.71,0,0,1-1,1.16c-.61.7-1.21,1.44-1.82,2.2A28,28,0,0,1,153,33,8.24,8.24,0,0,1,148.55,34.28Zm1.88-10.73a2.36,2.36,0,0,0,.38,0h0a2.73,2.73,0,0,0,1.12-.22,6.63,6.63,0,0,0,2.45-1.91,6,6,0,0,0,1.28-2.74v0l-.24.08a8.15,8.15,0,0,0-2.44,1.7A19,19,0,0,0,150.43,23.55Z"/><path d="M154.33,14.16a4.55,4.55,0,0,1,2.71.89,3.29,3.29,0,0,1,1.39,2.12c.58,3.28-2,6.29-4.28,7.48a7.3,7.3,0,0,1-3.28.71,6.65,6.65,0,0,1-1.89-.25.49.49,0,0,1-.19,0,1.05,1.05,0,0,0-.23.27,12.71,12.71,0,0,0-1.43,3.54c-.16.78-.31,2.16.46,2.78a1.29,1.29,0,0,0,.8.24c1.16,0,2.75-1,3.48-1.43,4.59-3.21,5.25-4.94,8-7.53l1-.81a.41.41,0,0,1,.23-.11c.06,0,.12,0,.2.15s.19,0,.27,0c.38.23.46.5.19.85a8.13,8.13,0,0,1-.93,1.12c-2.46,2.81-4.55,6.09-8,8.37a7.86,7.86,0,0,1-6.94.73c-4.09-1.54-4-6.13-2.36-9.49a26.13,26.13,0,0,1,4.79-6.4c1.59-1.65,3.83-3.24,6.08-3.24m-7.16,6.33c.19,0,.27-.16.34-.24a23,23,0,0,1,2.43-2.5,5.12,5.12,0,0,1,.51-.54s.15-.08.07-.2c-.27.2-.54.35-.77.54s-.54.47-.77.7-.42.42-.66.65l-.65.78a3.58,3.58,0,0,0-.5.81m3.64,3.58a3.07,3.07,0,0,0,1.33-.27,7.15,7.15,0,0,0,2.63-2,6.72,6.72,0,0,0,1.39-3,1.19,1.19,0,0,0-.08-.77l-.81.27a8.88,8.88,0,0,0-2.63,1.81,21,21,0,0,0-2.93,3.63l-.07.15a3.34,3.34,0,0,0,1.17.19m-1.56-3.74a3.84,3.84,0,0,0-1.2,1.54l1.2-1.54m2.31.25v0l.2-.11a.12.12,0,0,0-.08,0l-.15.15a0,0,0,0,1,0,0m-2.7,2.49c.54-.69,1.08-1.43,1.59-2.12a.85.85,0,0,0,.11-.16l0,0-.08-.08a10.43,10.43,0,0,0-1.66,2.39m2.43-2.31c-.19.23-.38.3-.42.57a1.17,1.17,0,0,0-.27.2c-.27.31-.54.65-.81,1,0,.08-.15.15-.23.23a.7.7,0,0,1-.39.54v.23h0a.49.49,0,0,0,0-.23c.31,0,.39-.19.47-.42,0,0,0-.08-.08-.12a.25.25,0,0,0,.12,0,.21.21,0,0,0,.19-.1,13.86,13.86,0,0,1,1-1.19.24.24,0,0,1,0-.16,1.06,1.06,0,0,0,.42-.57m3-7.6c-2.94,0-5.52,2.22-6.8,3.54a26.68,26.68,0,0,0-5,6.66,9.35,9.35,0,0,0-.72,7.39,6,6,0,0,0,3.61,3.48,9,9,0,0,0,3.09.55,8.8,8.8,0,0,0,4.76-1.38,28.37,28.37,0,0,0,6.4-6.35c.61-.76,1.19-1.48,1.81-2.18a9.61,9.61,0,0,0,1-1.21,1.53,1.53,0,0,0,.33-1.22,1.65,1.65,0,0,0-.82-1.08l0,0h0a1,1,0,0,0-.27-.1,1.19,1.19,0,0,0-.64-.2,1.38,1.38,0,0,0-.83.31l0,0,0,0-1,.81,0,0,0,0a33.92,33.92,0,0,0-2.34,2.46,26.83,26.83,0,0,1-5.48,4.93l-.37.21a7.16,7.16,0,0,1-2.59,1.08.34.34,0,0,1-.2,0c-.17-.13-.28-.76-.08-1.78a11.16,11.16,0,0,1,1.11-2.88,8.65,8.65,0,0,0,1.65.15,8.43,8.43,0,0,0,3.75-.82c2.79-1.45,5.43-4.94,4.8-8.55a4.35,4.35,0,0,0-1.79-2.75,5.57,5.57,0,0,0-3.3-1.08ZM151.44,23a15.86,15.86,0,0,1,1.9-2.18,9.79,9.79,0,0,1,1.55-1.22,6.35,6.35,0,0,1-.91,1.54,6.2,6.2,0,0,1-2.24,1.75,2.09,2.09,0,0,1-.3.11Z"/><path class="cls-1" d="M170.19,34a4.93,4.93,0,0,1-2.66-.7,5.84,5.84,0,0,1-1.28-1.39l-.08-.12a8.68,8.68,0,0,1-1.57,1,4.83,4.83,0,0,1-1.22.56l-.11,0a3.08,3.08,0,0,1-1.17.19,5.45,5.45,0,0,1-3-.83,4.21,4.21,0,0,1-2-3.92v-.19a12.64,12.64,0,0,1,.73-3.07c.92-2.51,2.53-6,3.72-8.41l.92-2a2.45,2.45,0,0,1,1.59-1.41,1.2,1.2,0,0,1,.42-.08,1.79,1.79,0,0,1,1.11.46l.2.17a.62.62,0,0,1,.23.11l.11.07a1.5,1.5,0,0,1,.4.47.75.75,0,0,1,.3.18l.26.36a3.63,3.63,0,0,1,.76,1.49h0a1.3,1.3,0,0,1-.08,1.27L166.94,20c-.47.95-1,2-1.31,2.66-.43.95-.82,1.91-1.22,2.89l-.5,1.22c-.3.79-.61,1.59-.88,2.4a11.54,11.54,0,0,0-.29,1.36,6.14,6.14,0,0,0,2.09-1,5.22,5.22,0,0,0,.77-.62l.07-.08a15.31,15.31,0,0,1,1.18-3.14l3.59-7.15c.32-.63.7-1.23,1.07-1.81q.21-.32.42-.66l.29-.55a3,3,0,0,1,2.34-1.45h.17a1.51,1.51,0,0,1,.91.34l.16.14a1,1,0,0,1,.71.53h0a.74.74,0,0,1,.25.17,3.88,3.88,0,0,1,1.07,2.45,1.72,1.72,0,0,1-.26.9c-.19.33-.4.67-.61,1l-.39.64c-.77,1.25-2,3.59-2.68,5s-1.43,3-2.12,4.47a8.21,8.21,0,0,0-.31.77,7.44,7.44,0,0,0,1.94-.86,15.7,15.7,0,0,0,2.91-2.29l.22-.2c1.55-1.42,2.85-2.71,4-3.95a1.94,1.94,0,0,1,.31-.26.89.89,0,0,1,.29-.15l.1-.06h.13l.16,0h0l.06,0,.14.09.14.1a1.69,1.69,0,0,1,.3.21,1,1,0,0,1,.21,1.28L182,25a13.11,13.11,0,0,1-1,1.32c-.6.69-1.24,1.38-1.87,2.07-.42.45-.84.9-1.25,1.36a20,20,0,0,1-4.33,3.42A6.77,6.77,0,0,1,170.19,34Z"/><path d="M164.5,14.23a1.35,1.35,0,0,1,.8.35,3,3,0,0,0-.31.27,1.37,1.37,0,0,0-.16.43c.2,0,.39,0,.54-.23,0,0,0-.08.08-.12s.14-.1.18-.1.1,0,.21.1a1.1,1.1,0,0,1,.38.62.29.29,0,0,1,.15-.06.16.16,0,0,1,.12.06,4.28,4.28,0,0,1,.89,1.58v.08c.23.31.12.58,0,.88-.54,1.12-1.62,3.24-2.16,4.4-.62,1.35-1.16,2.74-1.73,4.13-.31.81-.62,1.62-.89,2.43a11.63,11.63,0,0,0-.35,1.7v.42h.27a7.37,7.37,0,0,0,2.66-1.23,4.94,4.94,0,0,0,.81-.66.68.68,0,0,0,.2-.27,15.14,15.14,0,0,1,1.15-3.09l3.59-7.13c.43-.85,1-1.62,1.47-2.43l.31-.58a2.53,2.53,0,0,1,2-1.2h.1a1.07,1.07,0,0,1,.6.23c-.08.08-.16.24-.27.31a.37.37,0,0,0,.16.05.39.39,0,0,0,.22-.09.43.43,0,0,1,.19,0,.48.48,0,0,1,.43.28,1.83,1.83,0,0,1,.08.27.2.2,0,0,1,.27,0,3.46,3.46,0,0,1,.92,2.13,1.1,1.1,0,0,1-.19.61c-.31.54-.66,1.08-1,1.66-.81,1.31-2,3.71-2.7,5.09s-1.43,3-2.12,4.48a9.27,9.27,0,0,0-.58,1.66.2.2,0,0,0,.11,0,1,1,0,0,0,.31-.1,8.39,8.39,0,0,0,2.51-1,17,17,0,0,0,3.2-2.55c1.39-1.27,2.74-2.58,4-4a1.21,1.21,0,0,1,.23-.19c.08-.08.16-.08.23-.12s0,0,.08.08a.75.75,0,0,0-.15.31c.11-.08.23-.16.31-.23a1.43,1.43,0,0,1,.27.19.47.47,0,0,1,.11.58A21.53,21.53,0,0,1,180.61,26c-1,1.16-2.08,2.28-3.12,3.44a19.52,19.52,0,0,1-4.21,3.31,6.23,6.23,0,0,1-3.09.82,4.44,4.44,0,0,1-2.39-.62,6.68,6.68,0,0,1-1.27-1.43c-.08-.08-.15-.23-.27-.35-.11.08-.19.12-.27.19a8.08,8.08,0,0,1-1.62,1,5.16,5.16,0,0,1-1.27.57,2.62,2.62,0,0,1-1,.16,5,5,0,0,1-2.67-.73,3.82,3.82,0,0,1-1.81-3.71,12.32,12.32,0,0,1,.7-2.89c.92-2.51,2.5-5.94,3.7-8.37l.92-2a2,2,0,0,1,1.32-1.16.93.93,0,0,1,.24,0m0,1.51c.23,0,.23,0,.19-.31l-.19.31m9.52.46.54-.3c.2-.08.24-.16.12-.43-.19.27-.58.35-.66.73m-9.83,1.62c-.2.43-2.16,4.71-2.32,5.1.2-.12,2.32-4.29,2.32-5.1m.27.54c-.2.43-2.16,4.71-2.32,5.1a50.4,50.4,0,0,0,2.32-5.1m7.29,3.86c-.19.43-2.16,4.71-2.32,5.09.2-.11,2.32-4.28,2.32-5.09M178,27.16c.08-.12.23-.23.35-.39l0,0c-.12.16-.27.27-.35.39l0,0m-.89.89a1.71,1.71,0,0,1,.27-.27l0,0A1.71,1.71,0,0,0,177,28l0,0m-.81.69.35-.27a0,0,0,0,1,0,0l-.35.27,0,0M176,29h0l-.15.16s0,0,0,0A1.12,1.12,0,0,1,176,29M164.5,13.23a1.81,1.81,0,0,0-.6.11A3,3,0,0,0,162,15L161.11,17c-1.19,2.42-2.8,5.92-3.73,8.45a13.24,13.24,0,0,0-.75,3.13v.29a4.7,4.7,0,0,0,2.22,4.33,6,6,0,0,0,3.26.93,3.59,3.59,0,0,0,1.36-.22l.09,0a6,6,0,0,0,1.33-.61,11.13,11.13,0,0,0,1.18-.7,5.32,5.32,0,0,0,1.18,1.2,5.38,5.38,0,0,0,2.95.8,7.38,7.38,0,0,0,3.6-1,20.16,20.16,0,0,0,4.4-3.48l0,0,0,0,1.24-1.35c.63-.68,1.28-1.38,1.9-2.09a14.83,14.83,0,0,0,1.06-1.34l.33-.45a1.48,1.48,0,0,0-.29-2,2,2,0,0,0-.27-.19l-.07-.05-.11-.07a1.28,1.28,0,0,0-.21-.14l-.36-.24-.13.13h-.21l-.18.09a1.41,1.41,0,0,0-.4.21,2.37,2.37,0,0,0-.36.3c-1.15,1.26-2.44,2.54-4,4l-.22.2a14.75,14.75,0,0,1-2.78,2.2l0,0,0,0a5,5,0,0,1-.76.41c.66-1.41,1.31-2.77,2-4.15s1.89-3.78,2.65-5c.13-.23.27-.44.39-.65s.43-.7.63-1a2.15,2.15,0,0,0,.32-1.11A4.38,4.38,0,0,0,177.16,15l0,0,0,0a1.41,1.41,0,0,0-.24-.2,1.53,1.53,0,0,0-.84-.62L176,14a2,2,0,0,0-1.22-.45,1.1,1.1,0,0,0-.26,0,3.47,3.47,0,0,0-2.66,1.66l0,0v0l-.29.55c-.13.21-.26.42-.4.63A20.48,20.48,0,0,0,170,18.34l-3.59,7.14a16.35,16.35,0,0,0-1.2,3.13,4.2,4.2,0,0,1-.6.48l-.05,0,0,0a4.59,4.59,0,0,1-1.12.65c0-.17.08-.33.12-.49.25-.75.56-1.56.86-2.35.16-.38.33-.79.49-1.19.41-1,.79-1.94,1.22-2.87.31-.67.81-1.68,1.3-2.65l.85-1.73a1.79,1.79,0,0,0,.11-1.65,4.18,4.18,0,0,0-.84-1.63l-.19-.27-.06-.08-.06-.06a1.57,1.57,0,0,0-.25-.2l-.09-.06a1.81,1.81,0,0,0-.4-.43l-.05,0-.06,0,0,0a2.07,2.07,0,0,0-.26-.13l-.13-.11a2.27,2.27,0,0,0-1.42-.57Z"/><path class="cls-2" d="M38.24,83.76a8.4,8.4,0,0,1-1.51-.13,10.83,10.83,0,0,1-8.38-6.7c-3.73-8.81,1-18.85,4.21-24.05,3-5,6.92-10.35,12.78-12.85a11.9,11.9,0,0,1,4.59-1,9.71,9.71,0,0,1,8.86,5.42c2.63,5.3,2.2,12.15-1.28,20.35S49,82.55,39.76,83.64A9.54,9.54,0,0,1,38.24,83.76ZM51.21,46a4.87,4.87,0,0,0-1.59.24C47.43,47,45.6,49,44,50.84c-.35.39-.69.78-1,1.14a25.37,25.37,0,0,0-4,5.88,48.13,48.13,0,0,0-3.27,8.63c-.83,3.07-1.58,6.3-.77,9,.48,1.61,1.37,2.39,2.72,2.39,2.92,0,7-3.54,8.45-5.16C49.89,68.5,51.8,63,53.58,57.18l.35-1.12c.77-2.38,1.73-5.34,1.14-7.65l-.2-.65C54.32,46.47,52.55,46,51.21,46Z"/><path d="M49.93,39.58a9.14,9.14,0,0,1,8.41,5.14c3.1,6.25,1.29,13.84-1.29,19.93C53.9,72.14,48.84,82.06,39.7,83.14a9.08,9.08,0,0,1-1.46.12,8.45,8.45,0,0,1-1.43-.12,10.4,10.4,0,0,1-8-6.4C25.55,69,28.86,59.9,33,53.14c3.1-5.06,6.87-10.22,12.55-12.65a11.32,11.32,0,0,1,4.39-.91m-7.54,4.73c-1.29.31-4.39,3.46-5.17,5.16.78-.87,1.55-1.8,2.43-2.68s1.81-1.65,2.74-2.48M37.69,78.4c3.08,0,7.24-3.52,8.83-5.33,3.87-4.39,5.83-10.22,7.54-15.75.77-2.53,2.22-6.19,1.49-9l-.2-.67c-.64-1.5-2.49-2.13-4.14-2.13a5.27,5.27,0,0,0-1.75.27c-2.79.93-4.9,3.77-6.87,5.88a25.87,25.87,0,0,0-4,6,48,48,0,0,0-3.31,8.73c-.77,2.84-1.65,6.35-.77,9.29.6,2,1.79,2.75,3.2,2.75m3.56-30.63a12,12,0,0,0-2.43,2.89c.06,0,.06,0,.06.05.82-1,1.6-2,2.37-2.94m3.46.41a14.08,14.08,0,0,0-4.13,4.75c.31-.41.62-.87,1-1.29s.62-.77,1-1.18a10.7,10.7,0,0,1,1.09-1.14c.36-.41.77-.72,1.08-1.14m-1.7.36a14.9,14.9,0,0,0-3.31,4.29c1.09-1.45,2.17-2.89,3.31-4.29m9.09,23.6a37.43,37.43,0,0,0,3.45-6.3.17.17,0,0,1-.1,0C54.88,66.88,54.37,68,53.8,69s-1.14,2.12-1.7,3.15m-1.4,3.31a.65.65,0,0,0,.26-.26c.21-.31.41-.62.62-.88a27.41,27.41,0,0,0,2.27-3.72l1.4-2.73c.2-.52.46-1,.67-1.55,0,0,0,0-.06,0L53.49,71c-.77,1.55-1.86,3-2.79,4.5m1.5-9.14c-1.71,2.53-3,5.26-4.91,7.64a15.94,15.94,0,0,0,2.53-3.31l.42-.72L51.89,67l.31-.67m1.29.67a34,34,0,0,0-2.27,4,25.92,25.92,0,0,0,2.27-4m-3.56-28.4h0a12.29,12.29,0,0,0-4.78,1c-6,2.56-9.94,8-13,13-3.23,5.28-8.07,15.48-4.25,24.51a11.36,11.36,0,0,0,8.76,7,10.34,10.34,0,0,0,1.59.13,11.17,11.17,0,0,0,1.62-.13C49.26,83,54.48,73.34,58,65s4-15.33,1.27-20.76a10.2,10.2,0,0,0-9.31-5.7ZM37.69,77.4c-.76,0-1.7-.23-2.24-2-.78-2.59,0-5.74.78-8.75a46.67,46.67,0,0,1,3.23-8.54,25.08,25.08,0,0,1,3.87-5.76c.34-.36.68-.75,1-1.15,1.65-1.86,3.36-3.78,5.42-4.46a4.47,4.47,0,0,1,1.43-.22c1.26,0,2.73.46,3.2,1.47l.19.62c.54,2.12-.39,5-1.14,7.33-.13.39-.25.77-.36,1.12-1.76,5.73-3.65,11.21-7.33,15.38-1.54,1.74-5.48,5-8.08,5Z"/><path class="cls-2" d="M56.58,82.83a.67.67,0,0,1,0-.19l-.42.16-.17-.07c-.27-.11-.48-.22-.8-.37l-.36-.18v-.05a1.92,1.92,0,0,1-1.42-1L53.26,81l0-.15h-.23l-.15-.21a2.27,2.27,0,0,1-.26-2.22c1.43-3.85,3.63-9,5.57-13.6,1-2.21,1.84-4.32,2.59-6.14,1.21-3,2.51-6.21,4.05-9.28.82-1.7,1.71-3.31,2.7-4.94a19.5,19.5,0,0,1,3.14-3.77,7.28,7.28,0,0,1,2.21-1.44,3.86,3.86,0,0,1,1.73-.44,3.54,3.54,0,0,1,.85.11l.29.09a2.26,2.26,0,0,1,.78.36,11.24,11.24,0,0,1,2.91,2.4,7.72,7.72,0,0,1,1.43,2.48,3.22,3.22,0,0,1,.17,2A6.07,6.07,0,0,1,80.53,48,24.8,24.8,0,0,1,78,52.65,32.68,32.68,0,0,1,72.36,59a24.25,24.25,0,0,1-4.6,3.17,1.48,1.48,0,0,0-.7.79c-.29.78-.61,1.58-.92,2.37l-.3.74,1.29-1.29c2.37-2.37,4.82-4.82,8-6.15a6.94,6.94,0,0,1,2.73-.58c2.57,0,5,1.5,6.76,4.12a7.68,7.68,0,0,1,1.21,3.63l.79-.21a12.72,12.72,0,0,0,4.14-1.58,4.8,4.8,0,0,1,.76-.46l.06,0-.19-.75,1.12.78H93l-.12.24a1.43,1.43,0,0,1,.51,1.64A4.43,4.43,0,0,1,91,67.68c-.15.08-.3.16-.44.25a17.48,17.48,0,0,1-4,1.57l-.75.23a3.53,3.53,0,0,0-.65.21,2.67,2.67,0,0,0-.25.58l-.08.21a27.08,27.08,0,0,1-1.94,4.39l-.33.5a3.56,3.56,0,0,1-.31.52c-3,4.42-6.36,6.66-10,6.66a7.57,7.57,0,0,1-.81,0c-2.46-.25-4.33-1-5.47-3.82a8.09,8.09,0,0,1,.71-7.68,11.7,11.7,0,0,1,9.13-4.94c.5,0,.9,0,1.3,0s.8,0,1.26,0a.62.62,0,0,1,.35-.14,6.54,6.54,0,0,0,.1-2.91,2,2,0,0,0-1.64-.69,5.48,5.48,0,0,0-2.5.75,19.12,19.12,0,0,0-3.12,2.57c-.29.28-.58.56-.87.82a38,38,0,0,0-3.89,4.06c-.41.47-.84,1-1.34,1.54C64.43,73.47,62,77,61,78.52a5.85,5.85,0,0,0-.91,2A3.55,3.55,0,0,1,59.29,82l-.13.17a2.2,2.2,0,0,1-1,.79.65.65,0,0,1-.28.06.61.61,0,0,1-.28-.06l-.87.44Zm20-11.78a8.64,8.64,0,0,0-5.35,5.32,9.12,9.12,0,0,0,3.21-2.3A13.32,13.32,0,0,0,76.59,71.05ZM76,46a11.2,11.2,0,0,0-1.71,2,34.26,34.26,0,0,0-2.7,4.58c-.39.79-.77,1.63-1.15,2.48-.18.38-.36.77-.53,1.16a24.17,24.17,0,0,0,4.33-5,14.54,14.54,0,0,0,1.64-3.54,6.38,6.38,0,0,0,.3-1.84Z"/><path d="M74.65,39.26a3.1,3.1,0,0,1,.73.09,3.63,3.63,0,0,1,.88.36A11.18,11.18,0,0,1,79.1,42a7.31,7.31,0,0,1,1.34,2.32,2.81,2.81,0,0,1,.16,1.71,6.13,6.13,0,0,1-.52,1.7,25,25,0,0,1-2.53,4.6A32.63,32.63,0,0,1,72,58.67a24.3,24.3,0,0,1-4.5,3.09,2,2,0,0,0-.93,1c-.51,1.39-1.08,2.73-1.6,4.08l-.31.77.16.1a10.14,10.14,0,0,1,.77-.72l1.86-1.86c2.32-2.32,4.75-4.75,7.85-6a6.38,6.38,0,0,1,2.54-.54,7.87,7.87,0,0,1,6.34,3.9,7.24,7.24,0,0,1,1.14,3.56v.26l.1.1h.21c1.6-.46,4.08-.93,5.42-2a4,4,0,0,1,.67-.41c.1,0,.26,0,.41,0a2.16,2.16,0,0,0-.2.51c.2-.1.36-.2.26-.62.51.37.87.67.67,1.35-.37,1.08-1.71,1.65-2.59,2.16a20.55,20.55,0,0,1-4.59,1.76,4.76,4.76,0,0,0-.78.26,2.84,2.84,0,0,0-.51,1,27.9,27.9,0,0,1-1.91,4.34l-.31.46a5.5,5.5,0,0,1-.31.52c-2.29,3.36-5.49,6.44-9.57,6.44a6.56,6.56,0,0,1-.76,0C69,82,67.48,81.18,66.5,78.75,64,72.3,69.86,67.08,75.9,66.82c1,0,1.65-.1,2.63-.1.36,0,0-.15.41-.15.68-.06.68-3.26.37-3.67A2.55,2.55,0,0,0,77.25,62a5.88,5.88,0,0,0-2.75.81,26,26,0,0,0-4.07,3.46,52.86,52.86,0,0,0-5.27,5.62c-1.14,1.29-3.62,4.91-4.6,6.35a6.67,6.67,0,0,0-1,2.17,3.7,3.7,0,0,1-.82,1.45,1.67,1.67,0,0,1-.73.62l-.12,0c-.11,0-.16-.09-.24-.13l-.62.31c-.1-.31.1-.52.05-.78l-1,.36a7.24,7.24,0,0,1-.77-.36l.15-.62c-.2.16-.36.26-.46.36a1.4,1.4,0,0,1-1.24-.77,5,5,0,0,1,.2-.72h-.07c-.15,0-.2.11-.29.11a.56.56,0,0,1-.31,0,1.77,1.77,0,0,1-.2-1.76c2.11-5.68,5.83-14.09,8.16-19.72,1.23-3.1,2.53-6.25,4-9.24.83-1.71,1.71-3.31,2.69-4.91A19.09,19.09,0,0,1,71,41a6.85,6.85,0,0,1,2.07-1.35,3.4,3.4,0,0,1,1.54-.4M71,43.43c.52-.41,1-.82,1.6-1.24l.11-.1c0-.05,0-.05,0-.1v-.11l-.14,0c-.28,0-.47.25-.69.39a3.6,3.6,0,0,0-1,1.13.15.15,0,0,0,.1,0m1.71.88h-.16l-.51.62a1.13,1.13,0,0,0,.67-.62m-4,13.43a3.35,3.35,0,0,0,.41-.21,25.53,25.53,0,0,0,5.53-6,14.82,14.82,0,0,0,1.7-3.67,6.75,6.75,0,0,0,.31-2.32c0-.15,0-.31-.2-.41s-.52.31-.78.51a11.84,11.84,0,0,0-1.81,2.07,33.19,33.19,0,0,0-2.73,4.65c-.72,1.44-1.4,3-2.12,4.54-.1.21-.15.41-.31.83M74,45.34a2.1,2.1,0,0,0-.73.88,3,3,0,0,0,.73-.88m.62.57c-.26.05-.42.16-.52.57.26-.26.36-.41.52-.57M70.73,70.33a1.81,1.81,0,0,0-.67.52c-.26.26-.46.57-.72.88,0,0,0,.15-.1.31a5.11,5.11,0,0,0,1.49-1.71m.11,6.72a9.41,9.41,0,0,0,4-2.64,11.31,11.31,0,0,0,2.53-3.92c-.08,0-.26-.07-.38-.07l-.08,0a9.12,9.12,0,0,0-6.2,6c0,.15.16.36.16.57m.62-4.29c-.21,0-.31.16-.36.47.2-.21.25-.37.36-.47m.24.95s0,0,0,0l.1-.15,0-.06a.17.17,0,0,1-.11.06v.15l0,0m5.54,0A27.44,27.44,0,0,0,75.49,76a4.74,4.74,0,0,0,1.75-2.22m3,2.07a3,3,0,0,0-.73.88,2.1,2.1,0,0,0,.73-.88m.2,1c.11-.1.31-.16.21-.36l-.16.15s0,.11,0,.21m-1.13,1.5a5.17,5.17,0,0,0,1-1.14l-.11-.1a8.24,8.24,0,0,0-.82,1s0,.1,0,.21m-4.66-40a4.36,4.36,0,0,0-2,.49,7.65,7.65,0,0,0-2.33,1.52,19.62,19.62,0,0,0-3.21,3.85c-1,1.67-1.91,3.3-2.75,5-1.53,3.07-2.84,6.28-4,9.31-.75,1.8-1.64,3.91-2.59,6.13-1.94,4.57-4.14,9.75-5.58,13.62a2.75,2.75,0,0,0,.32,2.67l.3.43h.08l0,.08a2.48,2.48,0,0,0,1.51,1.19l.45.23c.33.16.56.27.85.39l.36.14.09,0,.27.79,1-.52.18-.09a.82.82,0,0,0,.23,0,1.27,1.27,0,0,0,.5-.1,2.7,2.7,0,0,0,1.13-.93l.14-.19a4,4,0,0,0,.89-1.7,5.43,5.43,0,0,1,.84-1.82c.81-1.18,2.6-3.8,3.82-5.38a8.83,8.83,0,0,0,.34,5.74c1.06,2.63,2.77,3.83,5.89,4.14.29,0,.58,0,.86,0,3.79,0,7.29-2.32,10.39-6.88a3.84,3.84,0,0,0,.35-.57l.28-.42,0,0,0,0a27.16,27.16,0,0,0,2-4.49l.07-.18c0-.09.08-.24.13-.35a2,2,0,0,1,.35-.11h0l.05,0,.75-.23a17.8,17.8,0,0,0,4-1.61l.43-.25a4.91,4.91,0,0,0,2.6-2.47,1.89,1.89,0,0,0-.38-1.91l.32-.64h-1.1l-2.09-1.46L91,63.3a5.41,5.41,0,0,0-.53.35,12.64,12.64,0,0,1-4,1.5l-.24.06A8.22,8.22,0,0,0,85,61.92a8.8,8.8,0,0,0-7.17-4.33,7.41,7.41,0,0,0-2.93.62,15.81,15.81,0,0,0-2.13,1.09,32.77,32.77,0,0,0,5.57-6.38A25,25,0,0,0,81,48.18a6.85,6.85,0,0,0,.59-1.9,3.77,3.77,0,0,0-.2-2.26,8.2,8.2,0,0,0-1.52-2.63,11.79,11.79,0,0,0-3-2.5,2.88,2.88,0,0,0-.89-.41,1.27,1.27,0,0,1-.18-.06l-.06,0-.07,0a4,4,0,0,0-1-.12ZM71.47,54q.28-.61.57-1.2A33.85,33.85,0,0,1,74.7,48.3c.27-.37.53-.71.79-1l-.09.31A13.76,13.76,0,0,1,73.82,51a22.57,22.57,0,0,1-2.35,3Zm-3.94,9.17a.94.94,0,0,1,.49-.54c.55-.29,1.1-.61,1.66-1-.86.75-1.68,1.56-2.48,2.36l.33-.86ZM71.1,67l.88-.82a18.17,18.17,0,0,1,3-2.52A4.75,4.75,0,0,1,77.25,63a1.58,1.58,0,0,1,1.19.44,7.37,7.37,0,0,1,0,2.24l-.11,0-1.13,0c-.41,0-.79,0-1.25,0A12.93,12.93,0,0,0,71.1,67Zm1.17,8.28a8,8,0,0,1,3.07-3.1,12.86,12.86,0,0,1-1.25,1.55,10,10,0,0,1-1.82,1.55Z"/><path class="cls-2" d="M74.85,102.14c-3.09,0-5.55-3.29-5.6-7.48,0-6.46,5.35-11.8,10.43-12.73l1.41-.21L86,70.14c1.24-3,3.08-7.35,4.19-9.72l1.35-2.85a3,3,0,0,1,1.93-1.65,1.8,1.8,0,0,1,.5-.08,2.25,2.25,0,0,1,1.16.38l.06,0,0,0a.73.73,0,0,1,.19.28h.1a.71.71,0,0,1,.47.18,2.45,2.45,0,0,1,.57.41l.8-.32-.38.75.23.26a6.22,6.22,0,0,1,.51.64l.14.18a2.6,2.6,0,0,1,.61,1.23,1.15,1.15,0,0,1,.06,1.31l-.32.59c0,.07-.07.15-.1.24a2.75,2.75,0,0,1-.15.36,34.39,34.39,0,0,0-2,4.18c-.26.6-.51,1.2-.78,1.79l-.4,1c-1.13,2.57-2.82,6.72-3.72,9a32,32,0,0,0,4-3.29,32.5,32.5,0,0,0,4.18-6c.44-.75.83-1.4,1.13-1.86a1.27,1.27,0,0,1,1-.59,1.07,1.07,0,0,1,.77.35,1.46,1.46,0,0,1,.36,1.12,5.58,5.58,0,0,1-.84,2.2,37.37,37.37,0,0,1-4.4,6.79c-2.18,2.23-5.92,5.22-8.18,6.16a1.08,1.08,0,0,0-.32.52v0l0,0c-.76,1.67-1.22,2.74-1.91,4.43L86.09,90c-2,4.62-4.29,9.85-9.29,11.75A5.09,5.09,0,0,1,74.85,102.14Zm4.43-16.52a10,10,0,0,0-4.37,3.28c-1.77,2.58-3,6-1.61,7.36a.45.45,0,0,0,.34.18c.5,0,1.2-.79,1.32-1.16l.64-1.4,2.11-4.75C78.25,88.07,78.87,86.6,79.28,85.62ZM97.87,53.76a2,2,0,0,1-1.21-.43,3.62,3.62,0,0,1-1.21-2.13c-.45-2.09.06-4.74,1.14-5.93a3.14,3.14,0,0,1,2.4-.92,6.7,6.7,0,0,1,4,1.44,2.43,2.43,0,0,1,1,1.84c0,1.3-1.21,2.38-2.28,3.33l-.26.23c-.12.12-.28.3-.45.49C100.19,52.56,99.1,53.76,97.87,53.76Z"/><path d="M99,44.85a6.25,6.25,0,0,1,3.66,1.32c2,1.7-.11,3.36-1.55,4.65-.75.75-2,2.44-3.23,2.44a1.43,1.43,0,0,1-.9-.33,3.26,3.26,0,0,1-1-1.86c-.41-1.91,0-4.38,1-5.47a2.66,2.66,0,0,1,2-.75M94,56.34a1.94,1.94,0,0,1,.91.31A.25.25,0,0,1,95,57c-.1,0-.15.16-.21.21l-.46.57a3.51,3.51,0,0,0-.36.77.54.54,0,0,0,.41-.26,4.09,4.09,0,0,1,1-1.08.45.45,0,0,1,.23-.1.27.27,0,0,1,.19.1,1.68,1.68,0,0,1,.51.36l-.15.36.26-.1c-.06.1-.06.2-.16.41l.41-.31a11.33,11.33,0,0,1,.73.88A2.59,2.59,0,0,1,98,60a.18.18,0,0,0,0,.15c.26.26.21.52,0,.83l-.31.57c-.1.2-.15.41-.26.62a58.25,58.25,0,0,0-2.79,6l-.41,1C92.73,72.86,90,79.68,90,79.68a37.84,37.84,0,0,0,5.43-4.28c2.22-2.23,4.28-6.3,5.37-7.91a.77.77,0,0,1,.6-.37c.36,0,.67.38.64.94a5.23,5.23,0,0,1-.78,2,36.9,36.9,0,0,1-4.34,6.72c-2.11,2.17-5.78,5.11-8,6a1.45,1.45,0,0,0-.62.88c-.77,1.7-1.24,2.79-1.91,4.44-2.17,4.8-4.34,11.1-9.76,13.16a4.52,4.52,0,0,1-1.77.38c-3,0-5-3.29-5.1-7,0-5.94,5-11.31,10-12.24l1.39-.21a.56.56,0,0,0,.47-.36l4.85-11.52c1.09-2.63,3-7.17,4.19-9.7L92,57.79a2.48,2.48,0,0,1,1.65-1.4,1.26,1.26,0,0,1,.33,0m-1.36,9.09c.21-.57.47-1.09.45-1.09l0,.06a4.53,4.53,0,0,1,.47-1c0-.51.1-.41.36-.77a6.45,6.45,0,0,0,.46-1.39,7.14,7.14,0,0,0-.46.92c-.16.37-.21.52-.36.83s-.11,0-.16.41a5.48,5.48,0,0,0-.72,2.07m-4.44,8.31c-.26.57-2.89,6.3-3.1,6.82a68.34,68.34,0,0,0,3.1-6.82m-8,11a11.76,11.76,0,0,0-5.68,3.87c-1.8,2.64-3.25,6.36-1.55,8a.89.89,0,0,0,.69.32,2.44,2.44,0,0,0,1.79-1.51l.62-1.34,2.12-4.75c.88-1.76,2-4.6,2-4.6M72.7,87.79a1.91,1.91,0,0,0-.57.62c.15-.16.36-.36.57-.62M77.34,98a9.85,9.85,0,0,0,1.55-2.12s0,0,0-.1l-1.55,2.17a0,0,0,0,0,0,0m3.57-2.07a7.11,7.11,0,0,0-1.09,1.4,3.51,3.51,0,0,0,1.09-1.4m.46.62a8.45,8.45,0,0,0-1.19,1.66,3.84,3.84,0,0,0,1.19-1.66m-6.66,2.38c.57-.26.72-.72,1-1.24l0-.05-.93,1.29M99,43.85h0a3.67,3.67,0,0,0-2.76,1.07C95,46.25,94.47,49,95,51.29a4.12,4.12,0,0,0,1.43,2.46,2.41,2.41,0,0,0,1.48.51c1.45,0,2.63-1.3,3.48-2.25l.43-.47.24-.2c1.1-1,2.47-2.19,2.45-3.72a2.9,2.9,0,0,0-1.18-2.21A7.1,7.1,0,0,0,99,43.85ZM94,55.34a2.05,2.05,0,0,0-.65.1,3.54,3.54,0,0,0-2.25,2L89.76,60.2c-1.12,2.39-3,6.75-4.2,9.75L80.79,81.26l-1.17.17c-5.31,1-10.93,6.52-10.87,13.23.06,4.48,2.74,8,6.1,8a5.57,5.57,0,0,0,2.15-.45c5.18-2,7.5-7.3,9.55-12l.74-1.67c.7-1.71,1.16-2.78,1.91-4.44l0-.1,0-.12a.59.59,0,0,1,.12-.19c2.35-1,6-3.94,8.24-6.22a37.1,37.1,0,0,0,4.49-6.92,5.83,5.83,0,0,0,.91-2.43,2,2,0,0,0-.51-1.47,1.54,1.54,0,0,0-1.13-.5,1.77,1.77,0,0,0-1.42.79c-.33.5-.72,1.15-1.16,1.9a32.72,32.72,0,0,1-4.1,5.88,29.28,29.28,0,0,1-2.49,2.17c.92-2.27,2.15-5.25,3-7.26l.42-1.06c.26-.56.51-1.16.77-1.76a32.36,32.36,0,0,1,2-4.09l0,0,0,0a3.42,3.42,0,0,0,.17-.4,2,2,0,0,1,.09-.22l.29-.53a1.64,1.64,0,0,0,0-1.77,3.14,3.14,0,0,0-.68-1.33l-.14-.18a5.86,5.86,0,0,0-.54-.67l.82-1.64-1.64.66,0,0-.06,0h0a2.78,2.78,0,0,0-.38-.25,1.16,1.16,0,0,0-.56-.24l-.12-.15-.1-.09-.11-.07A2.83,2.83,0,0,0,94,55.34ZM73.68,95.93l0,0c-1.14-1.11,0-4.29,1.68-6.72a8.59,8.59,0,0,1,3-2.54c-.33.77-.71,1.59-1,2.25l-2.14,4.79L74.53,95l0,.06,0,.07a1.9,1.9,0,0,1-.8.79Z"/><path class="cls-2" d="M104.81,82.9a10.83,10.83,0,0,1-3.84-.69A7.21,7.21,0,0,1,96.62,78a11.65,11.65,0,0,1,.93-9.22,35.19,35.19,0,0,1,6.49-8.7c1.62-1.67,4.88-4.48,8.51-4.48a6.62,6.62,0,0,1,3.91,1.28,4.9,4.9,0,0,1,2.06,3.14c.79,4.45-2.5,8.76-6,10.56a10.16,10.16,0,0,1-4.62,1,9.66,9.66,0,0,1-2.61-.33h0a.35.35,0,0,0-.06.09A16.59,16.59,0,0,0,103.39,76c-.31,1.56-.15,2.74.44,3.22a1.26,1.26,0,0,0,.75.2c1.19,0,2.88-1,3.89-1.54.2-.12.39-.23.55-.31a37.19,37.19,0,0,0,7.5-6.75c.9-1,1.83-2.07,3.08-3.25l1.31-1.1a1,1,0,0,1,.62-.27.75.75,0,0,1,.53.23.89.89,0,0,1,.32.08,1.38,1.38,0,0,1,.74.89,1.25,1.25,0,0,1-.3,1,11.17,11.17,0,0,1-1.29,1.54c-.81.94-1.64,2-2.44,3-2.39,2.95-4.86,6-8.37,8.31A10.89,10.89,0,0,1,104.81,82.9ZM107,68.84a5.29,5.29,0,0,0,.8.07h0a3.82,3.82,0,0,0,1.57-.32,9,9,0,0,0,3.34-2.6,8.34,8.34,0,0,0,1.75-3.74,1.77,1.77,0,0,0,0-.3l-.57.18a11.09,11.09,0,0,0-3.33,2.32A26.18,26.18,0,0,0,107,68.84Z"/><path d="M112.55,56.14a6.15,6.15,0,0,1,3.62,1.18A4.47,4.47,0,0,1,118,60.16c.78,4.39-2.63,8.42-5.73,10a9.88,9.88,0,0,1-4.39.95,8.8,8.8,0,0,1-2.53-.33.6.6,0,0,1-.26,0,2.37,2.37,0,0,0-.31.36,17.39,17.39,0,0,0-1.91,4.75c-.2,1-.41,2.89.62,3.72a1.74,1.74,0,0,0,1.06.31c1.56,0,3.69-1.38,4.67-1.91,6.15-4.29,7-6.61,10.69-10.07l1.29-1.09a.6.6,0,0,1,.3-.15c.09,0,.17.06.27.21s.26,0,.36.05c.52.31.62.67.26,1.13a10.29,10.29,0,0,1-1.24,1.5c-3.3,3.77-6.09,8.16-10.74,11.21a10.33,10.33,0,0,1-5.63,1.63,10.61,10.61,0,0,1-3.66-.65C95.67,79.68,95.72,73.54,98,69a34.69,34.69,0,0,1,6.4-8.57c2.13-2.2,5.13-4.33,8.15-4.33M103,64.6c.26,0,.37-.2.47-.31a28.65,28.65,0,0,1,3.25-3.35,8.89,8.89,0,0,1,.67-.73c0-.05.21-.1.11-.25a12.59,12.59,0,0,0-1,.72c-.36.31-.72.62-1,.93s-.57.57-.88.88l-.87,1A5.69,5.69,0,0,0,103,64.6m4.88,4.81a4.17,4.17,0,0,0,1.78-.37,9.58,9.58,0,0,0,3.52-2.73,8.85,8.85,0,0,0,1.86-4,1.48,1.48,0,0,0-.11-1c-.41.15-.77.26-1.08.36a11.8,11.8,0,0,0-3.51,2.43,27.44,27.44,0,0,0-3.93,4.85l-.1.21a4.62,4.62,0,0,0,1.57.26m-2.09-5a5,5,0,0,0-1.6,2.06l1.6-2.06m3.1.33v0l.26-.16a.15.15,0,0,0-.1,0l-.21.21s0,0,0,0m-3.61,3.33c.72-.93,1.44-1.91,2.11-2.84a.7.7,0,0,0,.16-.2l0-.06-.1-.1a13.48,13.48,0,0,0-2.22,3.2m3.25-3.1c-.26.31-.52.42-.57.78a1.36,1.36,0,0,0-.36.26c-.36.41-.72.88-1.08,1.34a2.27,2.27,0,0,1-.31.31.94.94,0,0,1-.52.72v.31h0a.7.7,0,0,0,0-.31c.41,0,.52-.26.62-.57,0,0-.05-.1-.1-.15a.45.45,0,0,0,.16,0,.3.3,0,0,0,.25-.13,16.7,16.7,0,0,1,1.29-1.6.31.31,0,0,1,0-.21,1.48,1.48,0,0,0,.57-.78m4.07-9.82c-3.82,0-7.2,2.91-8.87,4.64A35.37,35.37,0,0,0,97.1,68.6a12.19,12.19,0,0,0-.95,9.62,7.73,7.73,0,0,0,4.64,4.46A11.54,11.54,0,0,0,111,81.6c3.58-2.35,6.08-5.43,8.49-8.42.82-1,1.61-2,2.43-2.94a11.52,11.52,0,0,0,1.33-1.6,1.69,1.69,0,0,0,.37-1.36,1.82,1.82,0,0,0-.93-1.21l0,0,0,0a1.33,1.33,0,0,0-.34-.11,1.28,1.28,0,0,0-.74-.25,1.48,1.48,0,0,0-.9.35l0,0,0,0-1.29,1.08,0,0,0,0a45.23,45.23,0,0,0-3.12,3.28,36.58,36.58,0,0,1-7.41,6.67l-.51.28a9.47,9.47,0,0,1-3.64,1.48.82.82,0,0,1-.46-.11c-.41-.33-.51-1.38-.24-2.72a16.05,16.05,0,0,1,1.65-4.19,10,10,0,0,0,2.38.26,10.78,10.78,0,0,0,4.86-1.07c3.64-1.88,7.07-6.4,6.25-11.07a5.48,5.48,0,0,0-2.26-3.48,7.17,7.17,0,0,0-4.21-1.37Zm-4.61,13.27a23.6,23.6,0,0,1,3-3.6,11.19,11.19,0,0,1,2.9-2.09,8.22,8.22,0,0,1-1.54,3,8.61,8.61,0,0,1-3.13,2.44,3.34,3.34,0,0,1-1.27.28Z"/><path class="cls-2" d="M123,82.4a7.29,7.29,0,0,1-1.17-.11h-.12l-.16,0a1.56,1.56,0,0,1-.36,0,1.45,1.45,0,0,1-.64-.18L119,81.37a5.69,5.69,0,0,1-1.94-1.6,4.18,4.18,0,0,1-1.07-1.84,6.4,6.4,0,0,1-.11-2.5,11.49,11.49,0,0,1,.65-2.69l.13-.4c.37-1.11.75-2.26,1.22-3.34.32-.77.81-2,1.37-3.34,1.12-2.75,2.51-6.18,3.17-7.71q.39-.93.81-1.86c.27-.62.54-1.23.79-1.85a7.87,7.87,0,0,0,.35-.8v0c-.35,0-.67-.05-1-.05a5.09,5.09,0,0,0-1.08.1,1.9,1.9,0,0,0-1,.56h0a.78.78,0,0,1-.39,1.1,1,1,0,0,1-.38.07,1.85,1.85,0,0,1-1.57-1.34,1.14,1.14,0,0,1,0-.73,2.33,2.33,0,0,1,.88-1.26,4.07,4.07,0,0,1,2.8-.94c.63,0,1.27,0,1.89.09l.83.06.23-.53c.84-1.94,1.67-3.75,2.53-5.54a18.65,18.65,0,0,1,2.29-3.66,9.5,9.5,0,0,1,2.5-2.17,3.2,3.2,0,0,1,1.62-.41l.44,0A8.64,8.64,0,0,1,138,40.12a9.45,9.45,0,0,1,1.7,1.48,3.48,3.48,0,0,1,.73,3,17.22,17.22,0,0,1-2.34,5.53c-.39.62-.78,1.11-1.18,1.63l-.47.6h.72c.26,0,.5,0,.68,0a2,2,0,0,0,1.25-.49l.07,0,.11-.05.4-.18,1.34-.67-.47.94a.49.49,0,0,0,.15.09,1,1,0,0,1,.48.8,1.38,1.38,0,0,1-.35,1.08A3.93,3.93,0,0,1,137.63,55l-.69,0h-.63c-.33,0-.79,0-1.56,0a26.71,26.71,0,0,1-5.21,5.67.62.62,0,0,0-.09.12l-1.9,4.61c-1,2.35-2,4.82-2.66,6.43-.5,1.28-1,2.49-1.33,3.58,0,.14-.09.32-.15.52-.2.61-.55,1.73-.25,2,0,0,.06.05.27.05a4.6,4.6,0,0,0,1.6-.44h0a36.8,36.8,0,0,0,6.07-5.2c1-1,2-1.94,3-2.86.77-.72,1.54-1.43,2.3-2.2a8,8,0,0,0,.58-.67l2-2a.7.7,0,0,1,.21-.14l.09-.06.84-.74v.78l.35.18a1.07,1.07,0,0,1,.4,1.55,4.9,4.9,0,0,1-.84,1.06c-1.11,1.26-2.31,2.57-3.55,3.86h0c-.35.45-1.08,1.27-2.55,2.91-1.79,2-4.5,5-4.71,5.34l-.33-.22.28.32a15.12,15.12,0,0,1-4.43,2.67A4.74,4.74,0,0,1,123,82.4Zm10.32-30.2.94-1.31a23.69,23.69,0,0,0,2.38-4.1,5.16,5.16,0,0,0,.47-1.64l0-.26-.18.21-.4.59c-.38.55-.77,1.12-1.1,1.71a46.46,46.46,0,0,0-2.29,4.79Z"/><path d="M134.52,39.28l.4,0a7.88,7.88,0,0,1,2.84,1.24,8.33,8.33,0,0,1,1.6,1.4,3,3,0,0,1,.62,2.58,17.1,17.1,0,0,1-2.28,5.37c-.62,1-1.24,1.65-1.91,2.58l-.25.36a15.46,15.46,0,0,0,1.65.07c.27,0,.52,0,.72,0a2.57,2.57,0,0,0,1.55-.62,3.21,3.21,0,0,0,.46-.2.38.38,0,0,0,0,.2c0,.05-.05.11-.05.16h.1a2.65,2.65,0,0,0,.26-.21,1.31,1.31,0,0,0,.31.21c.31.2.26.82,0,1.08a3.43,3.43,0,0,1-2.86,1c-.45,0-.9,0-1.32,0s-.88,0-1.81,0a26.66,26.66,0,0,1-5.26,5.78.89.89,0,0,0-.26.37c-1.19,2.84-3.36,8.21-4.55,11-.46,1.19-.93,2.43-1.34,3.62-.26.93-.93,2.48-.26,3a.89.89,0,0,0,.6.17,5,5,0,0,0,1.88-.53c3.56-2.27,6.09-5.42,9.14-8.1.78-.73,1.55-1.45,2.32-2.22a7.65,7.65,0,0,0,.62-.73l2-1.91s.2-.1.31-.2c0,.05.05.05.05.1a1.7,1.7,0,0,1-.16.41,1.56,1.56,0,0,0,.42-.36l.31.16a.55.55,0,0,1,.2.82,4.43,4.43,0,0,1-.77,1c-1.14,1.29-2.33,2.59-3.56,3.88l.13-.14c.07,0-7.61,8.49-7.46,8.49l0,0a14.47,14.47,0,0,1-4.28,2.58,4.1,4.1,0,0,1-1.6.31,6.8,6.8,0,0,1-1.09-.1l-.36,0a.65.65,0,0,0-.2,0l-.16,0a.85.85,0,0,1-.41-.13l-1.6-.77a5.35,5.35,0,0,1-1.76-1.45,3.87,3.87,0,0,1-1-1.65,5.68,5.68,0,0,1-.1-2.32,10.8,10.8,0,0,1,.62-2.58c.41-1.24.82-2.53,1.34-3.72,1-2.38,3.56-8.78,4.54-11.05.52-1.24,1.09-2.48,1.6-3.72.16-.31.26-.57.37-.83a3.79,3.79,0,0,0,.25-.61,17,17,0,0,0-1.7-.12,5.28,5.28,0,0,0-1.19.12,2.26,2.26,0,0,0-1.5,1l.16.2c.1.26.05.37-.16.47a.39.39,0,0,1-.15,0,1.37,1.37,0,0,1-1.08-1,.63.63,0,0,1,0-.47,1.89,1.89,0,0,1,.72-1,3.6,3.6,0,0,1,2.48-.82c.93,0,1.86.1,2.78.15h.26l.36-.82c.83-1.92,1.66-3.72,2.53-5.53a18.21,18.21,0,0,1,2.22-3.56,9.27,9.27,0,0,1,2.38-2.07,2.79,2.79,0,0,1,1.36-.33m-.84,2.09a1.75,1.75,0,0,0-1.55,1.24l.77-.62c.21-.21.62-.26.78-.62m.51,1.7c-.36.16-.36.16-.41.41l.41-.41m1.55.62a3,3,0,0,0-.93,1.19,4,4,0,0,0,.93-1.19m1.09.16c-.88.51-1.19.82-1.24,1.23l1.24-1.23m-3.26,8.88.16-.26.93-1.29A24,24,0,0,0,137.08,47a5.52,5.52,0,0,0,.52-1.81,2.6,2.6,0,0,0,0-1.24,3.32,3.32,0,0,0-1,.82c-.52.78-1.09,1.55-1.55,2.38a47.91,47.91,0,0,0-2.48,5.22c0,.05,0,.15-.1.25l1.13.11m-3.1,4.54,2.23-3a6,6,0,0,0-.83-.11c-.1.31-1,2-1.4,3.1m.93-.26h.11l.2-.2v-.06c-.05.06-.2.11-.31.26m-5.93,1.91a68.34,68.34,0,0,0-3.1,6.82c.26-.57,2.89-6.3,3.1-6.82m1.08,1.5c-.26.16-3.1,5.73-3.1,6.82.26-.57,2.89-6.3,3.1-6.82m8.62,9.35,2.38-2.17s0,0-.05-.11c-.83.68-1.66,1.4-2.43,2.17l.1.11m-.77.62a1.19,1.19,0,0,1,.31-.26,0,0,0,0,0-.05,0,1.18,1.18,0,0,0-.31.25c.05,0,.05,0,.05.06m-.62.56.26-.15-.11-.1a.69.69,0,0,1-.2.15c.05.05.05.05.05.1m-.62.47-.15.15v.06a1,1,0,0,0,.15-.21m1.36-33.14a3.8,3.8,0,0,0-1.84.45A10.37,10.37,0,0,0,130,41.05a18.62,18.62,0,0,0-2.35,3.76c-.87,1.79-1.7,3.61-2.54,5.56l-.09.2-.47,0c-.63-.05-1.28-.09-1.93-.09a4.57,4.57,0,0,0-3.13,1.06,2.94,2.94,0,0,0-1,1.49,1.76,1.76,0,0,0,0,1,2.37,2.37,0,0,0,2.05,1.68,1.49,1.49,0,0,0,.47-.07l.07,0,.06,0a1.23,1.23,0,0,0,.73-1.39,1.63,1.63,0,0,1,.55-.23,4.54,4.54,0,0,1,1-.09h.24a.37.37,0,0,1,0,.11l0,0v0l-.79,1.84c-.28.62-.55,1.25-.81,1.87-.66,1.53-2,5-3.18,7.71-.55,1.36-1,2.57-1.37,3.35-.46,1.08-.85,2.24-1.22,3.37l-.14.41a12.29,12.29,0,0,0-.67,2.78,6.87,6.87,0,0,0,.13,2.7,4.74,4.74,0,0,0,1.18,2,6.2,6.2,0,0,0,2,1.69l1.64.79a1.86,1.86,0,0,0,.85.23,1.83,1.83,0,0,0,.4,0s0,0,.07,0h.15a7.42,7.42,0,0,0,1.19.11,5.21,5.21,0,0,0,2-.38,15.39,15.39,0,0,0,4.56-2.76l-.65-.74.83-.43a1,1,0,0,1-.05,1c.26-.36,2.92-3.33,4.67-5.29l1.92-2.15c.35-.39.6-.68.77-.9,1.19-1.24,2.34-2.5,3.43-3.73a6,6,0,0,0,.9-1.15,1.55,1.55,0,0,0-.51-2.18l-.05,0-.06,0-.06,0v-1.8L139,64a1.14,1.14,0,0,0-.35.25l-2,1.9,0,0,0,0a8.12,8.12,0,0,1-.54.64c-.76.76-1.53,1.48-2.28,2.18-1.06.93-2.06,1.92-3,2.88a36.73,36.73,0,0,1-6,5.12,4.54,4.54,0,0,1-1.25.38,7.52,7.52,0,0,1,.34-1.38l.17-.53c.37-1.08.81-2.27,1.32-3.55.67-1.59,1.68-4,2.65-6.41.7-1.71,1.38-3.36,1.88-4.56A27.08,27.08,0,0,0,135,55.46c.63,0,1,0,1.32,0h.62l.7,0a4.39,4.39,0,0,0,3.61-1.34,1.93,1.93,0,0,0,.46-1.45,1.57,1.57,0,0,0-.49-1l.94-1.89-2,1,0,0-.07.08-.61.3a1.49,1.49,0,0,1-.34.15l-.15.06-.13.09a1.61,1.61,0,0,1-1,.42h-.08l-.34,0c.35-.45.7-.92,1.06-1.48a17.8,17.8,0,0,0,2.4-5.67,4,4,0,0,0-.81-3.44l0,0,0,0a9,9,0,0,0-1.79-1.56,8.8,8.8,0,0,0-3.21-1.39H135a3.87,3.87,0,0,0-.48,0Z"/><path class="cls-2" d="M137.5,82.25a6.63,6.63,0,0,1-6.23-5.33c-.53-3,1.38-6.53,2.92-9.36.35-.63.67-1.23.95-1.79.68-1.39,1.8-3.62,2.77-5.55l1.15-2.29a4.18,4.18,0,0,1,.18-.39c.06-.12.12-.23.17-.35a3.38,3.38,0,0,1,2.7-1.75.75.75,0,0,1,.21,0,1.58,1.58,0,0,1,1.19.6l.19.24a.62.62,0,0,1,.34.1,1.09,1.09,0,0,1,.52.59.68.68,0,0,0,.08.15l.23,0,.1.21c.07.14.15.26.23.39a4.62,4.62,0,0,1,.28.48,6.82,6.82,0,0,1,.4,1.12,6.49,6.49,0,0,1,.22,1.1,2.81,2.81,0,0,1-.26,1.33c-.67,1.39-1.36,2.77-2.05,4.15-1.56,3.13-3.18,6.36-4.54,9.66,0,.1-.11.25-.19.41-.39.81-.55,1.29-.47,1.44l.1,0A6.6,6.6,0,0,0,141,76.21l.2-.14c2.31-1.52,5.46-6.15,6.49-7.68.4-.59.47-.69.68-.71a2.31,2.31,0,0,1,1.19-.94,1.47,1.47,0,0,1,.31,0,.92.92,0,0,1,.81.35.77.77,0,0,1,.45.24,2,2,0,0,1,.58,2.09l0,0-.65.92c-.65.94-1.26,1.88-1.86,2.8-2.71,4.19-5.28,8.15-10.91,9A5.49,5.49,0,0,1,137.5,82.25Zm6.86-27.69a1.85,1.85,0,0,1-1.24-.47,3.54,3.54,0,0,1-1.16-2.2A7.21,7.21,0,0,1,143.23,46a3.12,3.12,0,0,1,2.32-.87,6.43,6.43,0,0,1,4,1.52,2.5,2.5,0,0,1,1,1.86c0,1.27-1.18,2.31-2.23,3.23l-.34.3c-.17.15-.36.35-.57.56C146.59,53.49,145.54,54.56,144.36,54.56Z"/><path d="M145.55,45.66a5.89,5.89,0,0,1,3.67,1.39c2.06,1.75-.1,3.35-1.55,4.64-.82.75-2.07,2.37-3.31,2.37a1.4,1.4,0,0,1-.92-.35,3.14,3.14,0,0,1-1-1.91,6.78,6.78,0,0,1,1.14-5.42,2.65,2.65,0,0,1,2-.72m-3.23,10.26a1.1,1.1,0,0,1,.81.42l-.31.47v.1a.38.38,0,0,0,.17,0c.22,0,.4-.2.65-.2a.18.18,0,0,1,.16.06c.36.1.25.67.72.77.15.31.36.57.52.88a7.32,7.32,0,0,1,.36,1,6.27,6.27,0,0,1,.2,1,2.39,2.39,0,0,1-.2,1c-2.22,4.59-4.65,9.08-6.61,13.84-.21.51-1,1.85-.57,2.37a.57.57,0,0,0,.47.2c.88,0,2.41-1.19,2.83-1.49,2.87-1.88,6.91-8.3,7-8.3a10.07,10.07,0,0,1-.51.92.06.06,0,0,0,0,0s1.15-1.81,1.72-1.9a.75.75,0,0,1,.23,0c.16,0,.33,0,.39.13s.36.15.52.31a1.45,1.45,0,0,1,.46,1.55l-.62.88c-3.66,5.21-5.83,10.58-12.44,11.61a4.37,4.37,0,0,1-.72.06,6.12,6.12,0,0,1-5.73-4.91c-.62-3.51,2.32-7.85,3.82-10.84,1-2,2.89-5.79,3.92-7.85.1-.26.26-.52.36-.78a2.89,2.89,0,0,1,2.33-1.44h.12m0,1.71c0-.05,0-.1.1-.1l-.1-.1-.05,0c0,.05.05.1.05.15m3.25-13h0a3.59,3.59,0,0,0-2.68,1A7.68,7.68,0,0,0,141.48,52a4,4,0,0,0,1.33,2.48,2.38,2.38,0,0,0,1.55.57c1.39,0,2.52-1.15,3.43-2.08.2-.2.38-.39.55-.54l.33-.3c1.08-.94,2.41-2.1,2.4-3.6a3,3,0,0,0-1.2-2.25,6.93,6.93,0,0,0-4.32-1.63Zm-3.23,10.26-.29,0a3.92,3.92,0,0,0-3,2l0,0,0,0c0,.11-.09.21-.14.32s-.14.28-.2.42L137.47,60c-1,2-2.1,4.17-2.78,5.57-.27.53-.59,1.13-.94,1.76-1.57,2.89-3.53,6.49-3,9.69a7.16,7.16,0,0,0,6.72,5.74,5.22,5.22,0,0,0,.88-.07c5.85-.91,8.47-5,11.25-9.25.59-.91,1.2-1.85,1.85-2.78l.62-.87.06-.09.05-.11a2.46,2.46,0,0,0-.64-2.59l0,0,0,0a1.72,1.72,0,0,0-.56-.35,1.46,1.46,0,0,0-1.06-.38,1.77,1.77,0,0,0-.47.06,2.56,2.56,0,0,0-1.31,1c-.29.11-.48.39-.81.87-2.74,4-4.87,6.57-6.34,7.53l-.23.17a13.4,13.4,0,0,1-1.49,1c.09-.22.19-.43.25-.55s.16-.33.21-.45c1.35-3.27,3-6.5,4.52-9.61.69-1.39,1.38-2.77,2.06-4.17a3.29,3.29,0,0,0,.3-1.47v-.14a6.54,6.54,0,0,0-.24-1.2,6.91,6.91,0,0,0-.42-1.17,5.64,5.64,0,0,0-.31-.53c-.07-.11-.14-.22-.21-.35l-.21-.42-.23-.05a1.48,1.48,0,0,0-.69-.74,1.44,1.44,0,0,0-.31-.13l-.08-.09a2.05,2.05,0,0,0-1.57-.78Z"/><path class="cls-2" d="M150.74,82.38a5.17,5.17,0,0,1-1-.09A6.71,6.71,0,0,1,146,80.56c-2.41-2.25-1.56-5.52-.87-8.14l.06-.25a87.18,87.18,0,0,1,3.12-9.29l.36-.93c.36-.92.73-1.87,1.08-2.79.15-.29.26-.52.36-.75a4.32,4.32,0,0,1,1.68-2.17.63.63,0,0,1,.34-.14,1.53,1.53,0,0,1,.45-.08,1.05,1.05,0,0,1,1,.82l.39-.29.26.1a4.65,4.65,0,0,1,.71.36l.11.08.17.36.13-.08.26.13a2.05,2.05,0,0,1,1.18,1.23.83.83,0,0,1,.48.34.84.84,0,0,1,.1.33l.08,0,.24.49a1.06,1.06,0,0,1-.12,1.15c-.2.46-.39,1-.57,1.49s-.38,1.07-.59,1.55c-.53,1.09-.93,2.18-1.32,3.23-.22.61-.45,1.22-.69,1.82-.61,1.64-1.12,3.41-1.61,5.13l-.27.94c.61-.66,1.23-1.28,1.84-1.89.86-.85,1.66-1.65,2.39-2.52l.14-.16c.57-.61,1.1-1.18,1.71-1.79a.52.52,0,0,0,.11-.39c-.28-2.53.65-5,1.53-7a10.19,10.19,0,0,1,2.3-2.88L163,58a9.47,9.47,0,0,1,2.77-1.8,5,5,0,0,1,1.94-.4,4.34,4.34,0,0,1,3.2,1.31,3.59,3.59,0,0,1,.9,2.79,7.59,7.59,0,0,1-1.92,4c-1.17,1.33-4.11,4.63-5.38,6a17.93,17.93,0,0,0,4.24-.89l.5-.18a12.07,12.07,0,0,0,3.92-2.07l.39-.21.45-.22.21.42h.19l.17.07a3.11,3.11,0,0,1,.75.51,1.49,1.49,0,0,1,.21.38,1.09,1.09,0,0,0,.1.19l.29.29-.24.35a4.83,4.83,0,0,1-1.37,1.26,18.12,18.12,0,0,1-8.23,3.9,6.72,6.72,0,0,1-1.49.18,5.89,5.89,0,0,1-2.63-.65l-.06.11-1.39,1.5c-1.62,1.75-3.14,3.4-4.76,5-.84.88-2.73,2.41-4.47,2.47A4.5,4.5,0,0,1,150.74,82.38Z"/><path d="M167.72,56.3c1.94,0,3.8,1.29,3.6,3.55a6.94,6.94,0,0,1-1.81,3.72c-1.5,1.7-5.83,6.56-5.94,6.66s.24.21.65.21a17.88,17.88,0,0,0,4.72-.93,13.71,13.71,0,0,0,4.55-2.32l.31-.16a2.87,2.87,0,0,0,.2.36.86.86,0,0,1,.3-.12l.06,0a2.47,2.47,0,0,1,.62.41,4,4,0,0,0,.31.57,4.17,4.17,0,0,1-1.24,1.14A17.66,17.66,0,0,1,166,73.23a6.5,6.5,0,0,1-1.39.17,5.63,5.63,0,0,1-2.69-.74,1,1,0,0,0-.41.41c-2.07,2.22-4,4.39-6.1,6.46-.93,1-2.68,2.27-4.13,2.32a4.63,4.63,0,0,1-.54,0,4.34,4.34,0,0,1-.85-.08,6.28,6.28,0,0,1-3.56-1.6c-2.28-2.12-1.35-5.32-.68-7.9a91.29,91.29,0,0,1,3.1-9.25c.47-1.18,1-2.47,1.45-3.71s.82-2.12,1.86-2.69a.18.18,0,0,1,.15,0,1,1,0,0,1,.35-.08c.29,0,.47.22.58.65l.1.41c0,.05.11.05.21.1a1.91,1.91,0,0,1,.57-.56,3,3,0,0,1,.62.31l.36.77c.16-.1.21-.15.36-.26a1.45,1.45,0,0,1,1,1.19s0,0-.05.1a0,0,0,0,0,.05.05c0-.05,0-.05,0-.1l0,0c.52.1.57.21.47.57a.86.86,0,0,1-.11.41c-.1.1-.1.21-.1.41a1.82,1.82,0,0,1,.62-.46.59.59,0,0,1-.1.67c-.47,1.08-.78,2.17-1.19,3.1-.83,1.7-1.34,3.41-2,5.06-.83,2.22-1.45,4.59-2.12,6.87a4.18,4.18,0,0,1-.21,1c.21-.1.31-.1.36-.26,1.71-2.06,3.62-3.61,5.17-5.47.62-.67,1.19-1.29,1.86-2a1.09,1.09,0,0,0,.2-.78,13.88,13.88,0,0,1,1.5-6.76,11.86,11.86,0,0,1,2.69-3.2A8.74,8.74,0,0,1,166,56.65a4.27,4.27,0,0,1,1.72-.35m-5.28,9a43.19,43.19,0,0,0,4.44-5.11c.14-.16.15-.23.08-.23a6,6,0,0,0-2.2,1.58,9.64,9.64,0,0,0-2.27,3.61s-.11.15-.05.15M169,61.71a24.78,24.78,0,0,0-3.25,3.41l.21-.21c.46-.51,1-1,1.44-1.55a6,6,0,0,0,1.5-1.55c.05,0,.1-.1.1-.1m-19.1,8.62a2.11,2.11,0,0,0,.15-.41c.31-.88.68-1.81,1-2.73a13.4,13.4,0,0,0,1-2.9.3.3,0,0,0,.05-.2,34,34,0,0,0-2.17,6.24m4-5.83a6,6,0,0,0-.36.93,5.41,5.41,0,0,1-.41,1.08c-.1.37-.26.68-.36,1a18.17,18.17,0,0,0-1,3.15c.31-.73.56-1.4.82-2.12,0-.36.26-.62.36-1a4.53,4.53,0,0,1,.57-1.45,5.46,5.46,0,0,0,.41-1.6M161,70.59c-.05,0-.05,0-.1,0l0,0s.07-.07.07-.07m-.15.11a21.14,21.14,0,0,0-3.1,3.25s.15-.16.2-.16c.47-.51,1-1,1.4-1.54a6.44,6.44,0,0,0,1.5-1.55m-5.17,3.87c.05,0,.16-.1.21-.21.46-.46,1-1,1.44-1.5a8.73,8.73,0,0,0,1.55-1.6s.11-.1.06-.1a24.33,24.33,0,0,0-3.26,3.41M167.72,55.3a5.43,5.43,0,0,0-2.12.43,10.17,10.17,0,0,0-2.92,1.9l-.51.5a10.39,10.39,0,0,0-2.4,3c-.92,2.17-1.87,4.67-1.58,7.29v0c-.6.61-1.12,1.17-1.67,1.76l-.13.14v0l0,0c-.72.86-1.51,1.65-2.36,2.49l-.46.45c.4-1.39.83-2.8,1.32-4.12.24-.58.46-1.19.69-1.81.39-1,.78-2.12,1.29-3.17.24-.53.43-1.05.62-1.61s.35-1,.55-1.45a1.55,1.55,0,0,0,.12-1.59l-.49-1,0,0a1.27,1.27,0,0,0-.41-.33,2.63,2.63,0,0,0-1.36-1.3l-.32-.16-.06-.14-.24-.16a4.24,4.24,0,0,0-.8-.4l-.52-.21-.15.11a1.42,1.42,0,0,0-1.16-.57,1.67,1.67,0,0,0-.57.1,1.23,1.23,0,0,0-.5.2,4.79,4.79,0,0,0-1.85,2.38c-.1.22-.21.44-.33.67l0,.06,0,.06c-.34.91-.72,1.86-1.08,2.78l-.36.92A91.46,91.46,0,0,0,144.69,72l-.07.25c-.68,2.61-1.61,6.18,1,8.64a7.31,7.31,0,0,0,4.09,1.86,5.83,5.83,0,0,0,1,.09c.21,0,.42,0,.62,0,1.89-.1,3.89-1.7,4.78-2.64,1.61-1.6,3.14-3.26,4.76-5l1.23-1.33a6.29,6.29,0,0,0,2.48.53,6.83,6.83,0,0,0,1.62-.2,18.47,18.47,0,0,0,8.42-4,5.11,5.11,0,0,0,1.46-1.37l.48-.68-.55-.55,0-.08a1.56,1.56,0,0,0-.2-.38l-.05-.09-.07-.06a3.51,3.51,0,0,0-.88-.61,1.14,1.14,0,0,0-.26-.09l-.3-.6-.9.44-.31.15-.09,0-.07.06a11.54,11.54,0,0,1-3.79,2l-.5.18a16.15,16.15,0,0,1-2.81.7c1.5-1.68,3.69-4.13,4.48-5a8,8,0,0,0,2.06-4.33,4,4,0,0,0-1-3.12,4.81,4.81,0,0,0-3.57-1.48Z"/><path class="cls-2" d="M176.93,82.3a9.68,9.68,0,0,1-7.61-4,9.87,9.87,0,0,1-1.27-8.55c1.49-5,6-11.28,11.72-13.39a10,10,0,0,1,3.43-.6c4.18,0,7.43,2.4,8.28,6.12.68,3-.22,6.06-1.24,8.88l.09-.09a60.13,60.13,0,0,0,5-5.38l2.18-2.49c.79-.85.93-.9,1.11-.9a2.73,2.73,0,0,1,.38,0,.88.88,0,0,1,.84.46c.32.64-.23,1.6-1.3,3.05l-.19.26c-1.45,2-3.57,4.51-3.59,4.53a49.16,49.16,0,0,1-3.59,3.43c-.42.32-.82.7-1.25,1.09a18.66,18.66,0,0,1-2.34,1.94c-2.29,2.59-5.92,5.65-10.27,5.65Zm8.68-19.71a4.15,4.15,0,0,0-1.14.17c-2.49.72-4.43,2.8-6.15,4.95-1.83,2.31-3.73,5-3.87,7.71a2.45,2.45,0,0,0,1.76,2.49,6.56,6.56,0,0,0,1.74.28h0a4.08,4.08,0,0,0,.59,0c3-.38,5.74-3.18,8-8.33a14.44,14.44,0,0,0,1.4-4.91A2.17,2.17,0,0,0,185.61,62.59Z"/><path d="M183.2,56.29c3.53,0,6.92,2,7.79,5.73.77,3.41-.62,7-1.81,10.17,0,.06-.05.11-.05.21a0,0,0,0,1,.05,0c.52-.46,1-.93,1.5-1.39a63.55,63.55,0,0,0,5-5.42l2.17-2.48a5.94,5.94,0,0,1,.76-.73h0a2.38,2.38,0,0,1,.34,0c1.32,0-.77,2.55-1.06,3-1.45,2-3.56,4.49-3.56,4.49s-2.33,2.43-3.52,3.36-2,2-3.61,3c-2.61,3-6.1,5.53-9.94,5.53h-.34a9,9,0,0,1-8.41-11.88c1.55-5.27,6.09-11.1,11.41-13.06a9.61,9.61,0,0,1,3.26-.57m-4,3.3a16.38,16.38,0,0,0-3,1.86,8,8,0,0,0-2.42,2.74c1.54-1.91,3.61-3.15,5.42-4.6M178,78.69c.21,0,.42,0,.65,0,4.13-.52,6.81-5,8.41-8.63a14.81,14.81,0,0,0,1.45-5.11,2.65,2.65,0,0,0-2.85-2.82,4.78,4.78,0,0,0-1.28.19c-2.69.77-4.7,3-6.4,5.11s-3.83,5.11-4,8a2.94,2.94,0,0,0,2.12,3,7.17,7.17,0,0,0,1.88.3m-.7-15.38a4.45,4.45,0,0,0-1.8,2l1.8-2m3.41.57a10.41,10.41,0,0,0-3.46,3.2,29.28,29.28,0,0,1,3.46-3.2m-1.91.41a8,8,0,0,0-2.37,2.53c.05,0,.05,0,.1.06.72-.88,1.5-1.76,2.27-2.59m6.35,11.42h0c0,.05-.05.1-.1.15H185l.1-.15m-.67.77.16-.16-.05,0-.16.16s0,0,.05,0M183.2,55.29h0a10.45,10.45,0,0,0-3.6.63c-5.89,2.17-10.51,8.54-12,13.72A10,10,0,0,0,176.9,82.8h.38c4.51,0,8.24-3.11,10.61-5.77a20.39,20.39,0,0,0,2.34-2A15.81,15.81,0,0,1,191.44,74c1.24-1,3.53-3.36,3.63-3.46l0,0,0,0c.09-.1,2.16-2.57,3.6-4.54.06-.09.13-.17.2-.28,1-1.38,1.83-2.6,1.35-3.57a1.38,1.38,0,0,0-1.29-.73,2.37,2.37,0,0,0-.44,0c-.41,0-.69.27-1.4,1L194.94,65c-1.3,1.55-2.45,2.85-3.55,4A14,14,0,0,0,192,61.8c-.89-3.89-4.41-6.51-8.76-6.51ZM178,77.69a6,6,0,0,1-1.63-.27,1.91,1.91,0,0,1-1.37-2c.13-2.51,2-5.16,3.76-7.42,1.67-2.07,3.54-4.09,5.9-4.77a3.52,3.52,0,0,1,1-.15,1.66,1.66,0,0,1,1.85,1.84,14.56,14.56,0,0,1-1.37,4.7c-2.19,5-4.76,7.67-7.62,8l-.52,0Z"/><path class="cls-2" d="M202.71,81.8a3,3,0,0,1-.75-.09A6.83,6.83,0,0,1,200.7,81l-.18-.12a2.79,2.79,0,0,1-1-2.11A4.57,4.57,0,0,1,201,75.5a2.85,2.85,0,0,1,2-.75,3.87,3.87,0,0,1,3.71,2.92,2.92,2.92,0,0,1-.59,2.56A4.51,4.51,0,0,1,202.71,81.8Zm3.6-8.39-.2,0a2.33,2.33,0,0,1-1-.3l-.12,0-.35,0a1.83,1.83,0,0,1-.81-.18l-.15.23-.3,0a1.75,1.75,0,0,1-1.22-.41.82.82,0,0,1-.35.08h-.21l-.23-.18a2.91,2.91,0,0,1-.65-1.09l0-.13,0-.13c.22-.88.42-1.7,2.07-6.9a14.88,14.88,0,0,1,3.5-4.66c.48-.4.95-.74,1.4-1.08s.91-.66,1.29-1c1-.81,2-1.49,2.94-2.11,2.17-1.77,4-4.52,2.81-6.27a2.48,2.48,0,0,0-2.07-1c-1.48,0-3,.94-3.28,2l0,.15-1.42,1.3-1.16.13h-.06c-1.82-.26-2.29-.4-2.41-.79l-.1-.07c-.79-.26-1.05-.83-1-1.28a10,10,0,0,0,.15-1c.42-4,4.5-7.21,9.1-7.21A10,10,0,0,1,221,46.41c2,3.11,1.1,6.57.41,8.36a16.57,16.57,0,0,1-1.13,2.11,15.23,15.23,0,0,1-3.43,3.53c-1.18,1-2.44,1.91-3.63,2.7-.28.24-.67.51-1.08.8a10.88,10.88,0,0,0-1.92,1.54c-1.24,1.38-1.8,4-2.14,5.6a8.62,8.62,0,0,1-.36,1.4l0,.08-.06.07c-.33.41-.71.82-1.19.82Z"/><path d="M212.5,42a9.54,9.54,0,0,1,8.08,4.7c1.85,2.94,1,6.3.36,7.9a14.48,14.48,0,0,1-1.09,2,14.87,14.87,0,0,1-3.3,3.41c-1.14.93-2.38,1.86-3.62,2.68a27.41,27.41,0,0,0-3.09,2.43c-1.81,2-2.22,6.3-2.59,7.13-.05,0-.48.67-.83.67h0c-.26-.06-1-.11-1-.36s.08-.32,0-.32-.41.18-.38.37l-.28,0c-.5,0-.71-.23-.9-.23s-.19.07-.32.26c-.67,0-1.13-.16-.82-.62-.26,0-.6.29-.79.29a.12.12,0,0,1-.09,0,2.57,2.57,0,0,1-.52-.88c.21-.83.36-1.5,2.07-6.87a14.41,14.41,0,0,1,3.35-4.44c.93-.77,1.92-1.39,2.69-2.06,1-.78,2-1.45,2.89-2.07,2.27-1.86,4.39-4.85,2.94-7a3,3,0,0,0-2.48-1.18c-1.69,0-3.47,1.08-3.76,2.37l-1.19,1.08-.93.1c-3.56-.51-1.19-.56-1.7-.87l-.52.15c-.14-.07,0-.28,0-.28a1.45,1.45,0,0,0-.14.18c-.51-.16-.72-.47-.67-.72a10.39,10.39,0,0,0,.16-1.09c.4-3.79,4.34-6.76,8.6-6.76m-4.37,5c.05-.06.05-.06.16-.06-.11,0-.11-.1-.11-.1l-.1.1,0,.06m7.7,7.38h-.21c-.47.57-.93,1.24-1.34,1.65-.06,0,0,.11,0,.31a6.6,6.6,0,0,0,1.55-2m1.24,1.42v-.08H217s0,0,0,0a.81.81,0,0,0,.09.1m.87.9c.11,0,.16-.15.21-.26a1.51,1.51,0,0,0,.46-.41h-.07c-.35,0-.45.33-.6.67m-4.23-.1h0c.16-.05.16-.1.26-.1l-.1-.06c-.06.06-.06.11-.21.16m5.37-.1H219c.05,0,0,.1,0,.15h0c-.16,0-.21.05-.26.21a1.14,1.14,0,0,0,.26-.21h0s.05-.1.05-.15m-1.17.23a.32.32,0,0,0-.12,0c.05,0,.05.06.05.06s0-.05.07-.08,0,0,0,0l0,0m-.07,1.37h-.06c-.12,0-.2.13-.2.27.16-.11.26-.11.26-.26a2.17,2.17,0,0,0,.88-1.19v0a3.62,3.62,0,0,0-.88,1.24m-9.5,2.79a11,11,0,0,0-2.12,1.7,1.05,1.05,0,0,0-.31.67,12.21,12.21,0,0,0,2.43-2.37m-.83,3.56c.05-.16.16-.21.21-.21l-.13,0c-.11,0-.08.12-.08.24m1.19.1a5.36,5.36,0,0,1-.46.78v.1c0-.05,0-.05,0-.1.31-.21.31-.21.41-.78M203,75.25a3.36,3.36,0,0,1,3.22,2.52c.5,2.23-1.84,3.53-3.46,3.53a2.4,2.4,0,0,1-.62-.07,8.77,8.77,0,0,1-1.29-.77c-1.29-1.14-.77-3.36.52-4.6a2.35,2.35,0,0,1,1.63-.61m-1.55,2.22s.08-.07.12-.11v0h-.1a.18.18,0,0,0,0,.15h0m0,0-.05,0v.06c0-.06,0-.06.05-.11h0M212.5,41h0c-4.84,0-9.15,3.44-9.6,7.66a8.48,8.48,0,0,1-.13.94,1.65,1.65,0,0,0,1.15,1.86c.33.58,1.21.7,2.73.92l.12,0h.13l.93-.1.32,0,.24-.22,1.19-1.08.23-.21.07-.31a3,3,0,0,1,2.79-1.59,2,2,0,0,1,1.68.77c1,1.39-.65,3.86-2.74,5.58-.92.61-1.91,1.29-2.91,2.08-.4.35-.83.66-1.29,1s-.94.69-1.42,1.08l0,0v0a15.22,15.22,0,0,0-3.59,4.75l0,.06,0,.06c-1.65,5.22-1.86,6-2.06,6.84l0,.09-.06.26.07.25a3.24,3.24,0,0,0,.69,1.22l0,0,0,.05a1.13,1.13,0,0,0,.8.32l.23,0a2.69,2.69,0,0,0,1.31.35l.58,0,.1-.15a2.15,2.15,0,0,0,.61.08l.38,0a3.37,3.37,0,0,0,1,.28l.14,0h.24a2.18,2.18,0,0,0,1.57-1l0,0,.13-.14.08-.17a8.86,8.86,0,0,0,.39-1.49c.33-1.54.88-4.1,2-5.37a10.88,10.88,0,0,1,1.83-1.47c.4-.28.78-.55,1.12-.82,1.18-.79,2.43-1.72,3.63-2.7a15.9,15.9,0,0,0,3.5-3.61A17.79,17.79,0,0,0,221.85,55V55c.58-1.51,1.71-5.39-.45-8.8A10.53,10.53,0,0,0,212.5,41ZM203,74.25h0a3.32,3.32,0,0,0-2.32.88,5.11,5.11,0,0,0-1.58,3.64,3.25,3.25,0,0,0,1.09,2.44l.05,0,.06,0,.17.11a7.73,7.73,0,0,0,1.26.74l.08,0,.07,0a3.49,3.49,0,0,0,.88.1,5.05,5.05,0,0,0,3.75-1.75,3.48,3.48,0,0,0,.69-3,4.33,4.33,0,0,0-4.2-3.3Z"/></g></g></svg>